<?xml version="1.0" encoding="UTF-8" standalone="no"?><svg xmlns="http://www.w3.org/2000/svg" xmlns:xlink="http://www.w3.org/1999/xlink" contentScriptType="application/ecmascript" contentStyleType="text/css" height="783px" preserveAspectRatio="none" style="width:745px;height:783px;" version="1.1" viewBox="0 0 745 783" width="745px" zoomAndPan="magnify"><defs><filter height="300%" id="f18zq03ani7xpz" width="300%" x="-1" y="-1"><feGaussianBlur result="blurOut" stdDeviation="2.0"/><feColorMatrix in="blurOut" result="blurOut2" type="matrix" values="0 0 0 0 0 0 0 0 0 0 0 0 0 0 0 0 0 0 .4 0"/><feOffset dx="4.0" dy="4.0" in="blurOut2" result="blurOut3"/><feBlend in="SourceGraphic" in2="blurOut3" mode="normal"/></filter></defs><g><rect fill="#FFFFFF" filter="url(#f18zq03ani7xpz)" height="174.7969" style="stroke: #FFFFFF; stroke-width: 1.0;" width="10" x="56.5" y="48.2969"/><line style="stroke: #A80036; stroke-width: 1.0;" x1="56.5" x2="56.5" y1="48.2969" y2="223.0938"/><line style="stroke: #A80036; stroke-width: 1.0;" x1="66.5" x2="66.5" y1="48.2969" y2="223.0938"/><line style="stroke: #A80036; stroke-width: 1.0;" x1="56.5" x2="66.5" y1="48.2969" y2="48.2969"/><rect fill="#FFFFFF" filter="url(#f18zq03ani7xpz)" height="428.7266" style="stroke: #FFFFFF; stroke-width: 1.0;" width="10" x="56.5" y="263.8984"/><line style="stroke: #A80036; stroke-width: 1.0;" x1="56.5" x2="56.5" y1="263.8984" y2="692.625"/><line style="stroke: #A80036; stroke-width: 1.0;" x1="66.5" x2="66.5" y1="263.8984" y2="692.625"/><rect fill="#FFFFFF" filter="url(#f18zq03ani7xpz)" height="1" style="stroke: #FFFFFF; stroke-width: 1.0;" width="10" x="56.5" y="733.4297"/><line style="stroke: #A80036; stroke-width: 1.0;" x1="56.5" x2="56.5" y1="733.4297" y2="734.4297"/><line style="stroke: #A80036; stroke-width: 1.0;" x1="66.5" x2="66.5" y1="733.4297" y2="734.4297"/><rect fill="#FA8072" filter="url(#f18zq03ani7xpz)" height="68.2656" style="stroke: #A80036; stroke-width: 1.0;" width="10" x="61.5" y="489.6953"/><rect fill="#FF0000" filter="url(#f18zq03ani7xpz)" height="68.2656" style="stroke: #A80036; stroke-width: 1.0;" width="10" x="375.5" y="284.8984"/><rect fill="#FA8072" filter="url(#f18zq03ani7xpz)" height="204.7969" style="stroke: #A80036; stroke-width: 1.0;" width="10" x="432" y="421.4297"/><rect fill="#FA8072" filter="url(#f18zq03ani7xpz)" height="68.2656" style="stroke: #A80036; stroke-width: 1.0;" width="10" x="641" y="353.1641"/><rect fill="#FA8072" filter="url(#f18zq03ani7xpz)" height="29.1328" style="stroke: #A80036; stroke-width: 1.0;" width="10" x="641" y="626.2266"/><line style="stroke: #A80036; stroke-width: 1.0;" x1="61" x2="61" y1="38.2969" y2="223.0938"/><line style="stroke: #A80036; stroke-width: 1.0; stroke-dasharray: 1.0,4.0;" x1="61" x2="61" y1="223.0938" y2="263.8984"/><line style="stroke: #A80036; stroke-width: 1.0;" x1="61" x2="61" y1="263.8984" y2="692.625"/><line style="stroke: #A80036; stroke-width: 1.0; stroke-dasharray: 1.0,4.0;" x1="61" x2="61" y1="692.625" y2="733.4297"/><line style="stroke: #A80036; stroke-width: 1.0;" x1="61" x2="61" y1="733.4297" y2="743.4297"/><line style="stroke: #A80036; stroke-width: 1.0;" x1="380" x2="380" y1="38.2969" y2="223.0938"/><line style="stroke: #A80036; stroke-width: 1.0; stroke-dasharray: 1.0,4.0;" x1="380" x2="380" y1="223.0938" y2="263.8984"/><line style="stroke: #A80036; stroke-width: 1.0;" x1="380" x2="380" y1="263.8984" y2="692.625"/><line style="stroke: #A80036; stroke-width: 1.0; stroke-dasharray: 1.0,4.0;" x1="380" x2="380" y1="692.625" y2="733.4297"/><line style="stroke: #A80036; stroke-width: 1.0;" x1="380" x2="380" y1="733.4297" y2="743.4297"/><line style="stroke: #A80036; stroke-width: 1.0;" x1="437" x2="437" y1="38.2969" y2="223.0938"/><line style="stroke: #A80036; stroke-width: 1.0; stroke-dasharray: 1.0,4.0;" x1="437" x2="437" y1="223.0938" y2="263.8984"/><line style="stroke: #A80036; stroke-width: 1.0;" x1="437" x2="437" y1="263.8984" y2="692.625"/><line style="stroke: #A80036; stroke-width: 1.0; stroke-dasharray: 1.0,4.0;" x1="437" x2="437" y1="692.625" y2="733.4297"/><line style="stroke: #A80036; stroke-width: 1.0;" x1="437" x2="437" y1="733.4297" y2="743.4297"/><line style="stroke: #A80036; stroke-width: 1.0;" x1="646" x2="646" y1="38.2969" y2="223.0938"/><line style="stroke: #A80036; stroke-width: 1.0; stroke-dasharray: 1.0,4.0;" x1="646" x2="646" y1="223.0938" y2="263.8984"/><line style="stroke: #A80036; stroke-width: 1.0;" x1="646" x2="646" y1="263.8984" y2="692.625"/><line style="stroke: #A80036; stroke-width: 1.0; stroke-dasharray: 1.0,4.0;" x1="646" x2="646" y1="692.625" y2="733.4297"/><line style="stroke: #A80036; stroke-width: 1.0;" x1="646" x2="646" y1="733.4297" y2="743.4297"/><rect fill="#FEFECE" filter="url(#f18zq03ani7xpz)" height="30.2969" style="stroke: #A80036; stroke-width: 1.5;" width="87" x="16" y="3"/><text fill="#000000" font-family="sans-serif" font-size="14" lengthAdjust="spacingAndGlyphs" textLength="73" x="23" y="22.9951">SDEI client</text><rect fill="#FEFECE" filter="url(#f18zq03ani7xpz)" height="30.2969" style="stroke: #A80036; stroke-width: 1.5;" width="87" x="16" y="742.4297"/><text fill="#000000" font-family="sans-serif" font-size="14" lengthAdjust="spacingAndGlyphs" textLength="73" x="23" y="762.4248">SDEI client</text><rect fill="#FEFECE" filter="url(#f18zq03ani7xpz)" height="30.2969" style="stroke: #A80036; stroke-width: 1.5;" width="39" x="359" y="3"/><text fill="#000000" font-family="sans-serif" font-size="14" lengthAdjust="spacingAndGlyphs" textLength="25" x="366" y="22.9951">EL3</text><rect fill="#FEFECE" filter="url(#f18zq03ani7xpz)" height="30.2969" style="stroke: #A80036; stroke-width: 1.5;" width="39" x="359" y="742.4297"/><text fill="#000000" font-family="sans-serif" font-size="14" lengthAdjust="spacingAndGlyphs" textLength="25" x="366" y="762.4248">EL3</text><rect fill="#FEFECE" filter="url(#f18zq03ani7xpz)" height="30.2969" style="stroke: #A80036; stroke-width: 1.5;" width="46" x="412" y="3"/><text fill="#000000" font-family="sans-serif" font-size="14" lengthAdjust="spacingAndGlyphs" textLength="32" x="419" y="22.9951">SDEI</text><rect fill="#FEFECE" filter="url(#f18zq03ani7xpz)" height="30.2969" style="stroke: #A80036; stroke-width: 1.5;" width="46" x="412" y="742.4297"/><text fill="#000000" font-family="sans-serif" font-size="14" lengthAdjust="spacingAndGlyphs" textLength="32" x="419" y="762.4248">SDEI</text><rect fill="#FEFECE" filter="url(#f18zq03ani7xpz)" height="30.2969" style="stroke: #A80036; stroke-width: 1.5;" width="86" x="601" y="3"/><text fill="#000000" font-family="sans-serif" font-size="14" lengthAdjust="spacingAndGlyphs" textLength="72" x="608" y="22.9951">RAS Driver</text><rect fill="#FEFECE" filter="url(#f18zq03ani7xpz)" height="30.2969" style="stroke: #A80036; stroke-width: 1.5;" width="86" x="601" y="742.4297"/><text fill="#000000" font-family="sans-serif" font-size="14" lengthAdjust="spacingAndGlyphs" textLength="72" x="608" y="762.4248">RAS Driver</text><rect fill="#FFFFFF" filter="url(#f18zq03ani7xpz)" height="174.7969" style="stroke: #FFFFFF; stroke-width: 1.0;" width="10" x="56.5" y="48.2969"/><line style="stroke: #A80036; stroke-width: 1.0;" x1="56.5" x2="56.5" y1="48.2969" y2="223.0938"/><line style="stroke: #A80036; stroke-width: 1.0;" x1="66.5" x2="66.5" y1="48.2969" y2="223.0938"/><line style="stroke: #A80036; stroke-width: 1.0;" x1="56.5" x2="66.5" y1="48.2969" y2="48.2969"/><rect fill="#FFFFFF" filter="url(#f18zq03ani7xpz)" height="428.7266" style="stroke: #FFFFFF; stroke-width: 1.0;" width="10" x="56.5" y="263.8984"/><line style="stroke: #A80036; stroke-width: 1.0;" x1="56.5" x2="56.5" y1="263.8984" y2="692.625"/><line style="stroke: #A80036; stroke-width: 1.0;" x1="66.5" x2="66.5" y1="263.8984" y2="692.625"/><rect fill="#FFFFFF" filter="url(#f18zq03ani7xpz)" height="1" style="stroke: #FFFFFF; stroke-width: 1.0;" width="10" x="56.5" y="733.4297"/><line style="stroke: #A80036; stroke-width: 1.0;" x1="56.5" x2="56.5" y1="733.4297" y2="734.4297"/><line style="stroke: #A80036; stroke-width: 1.0;" x1="66.5" x2="66.5" y1="733.4297" y2="734.4297"/><rect fill="#FA8072" filter="url(#f18zq03ani7xpz)" height="68.2656" style="stroke: #A80036; stroke-width: 1.0;" width="10" x="61.5" y="489.6953"/><rect fill="#FF0000" filter="url(#f18zq03ani7xpz)" height="68.2656" style="stroke: #A80036; stroke-width: 1.0;" width="10" x="375.5" y="284.8984"/><rect fill="#FA8072" filter="url(#f18zq03ani7xpz)" height="204.7969" style="stroke: #A80036; stroke-width: 1.0;" width="10" x="432" y="421.4297"/><rect fill="#FA8072" filter="url(#f18zq03ani7xpz)" height="68.2656" style="stroke: #A80036; stroke-width: 1.0;" width="10" x="641" y="353.1641"/><rect fill="#FA8072" filter="url(#f18zq03ani7xpz)" height="29.1328" style="stroke: #A80036; stroke-width: 1.0;" width="10" x="641" y="626.2266"/><polygon fill="#A80036" points="368.5,65.2969,378.5,69.2969,368.5,73.2969,372.5,69.2969" style="stroke: #A80036; stroke-width: 1.0;"/><line style="stroke: #A80036; stroke-width: 1.0;" x1="66.5" x2="374.5" y1="69.2969" y2="69.2969"/><text fill="#000000" font-family="sans-serif" font-size="13" font-weight="bold" lengthAdjust="spacingAndGlyphs" textLength="21" x="73.5" y="64.3638">[1]</text><text fill="#000000" font-family="sans-serif" font-size="13" font-weight="bold" lengthAdjust="spacingAndGlyphs" textLength="164" x="98.5" y="64.3638">SDEI_EVENT_REGISTER</text><text fill="#000000" font-family="sans-serif" font-size="13" lengthAdjust="spacingAndGlyphs" textLength="101" x="262.5" y="64.3638">(ev, handler, ...)</text><polygon fill="#A80036" points="77.5,94.4297,67.5,98.4297,77.5,102.4297,73.5,98.4297" style="stroke: #A80036; stroke-width: 1.0;"/><line style="stroke: #A80036; stroke-width: 1.0;" x1="71.5" x2="379.5" y1="98.4297" y2="98.4297"/><text fill="#000000" font-family="sans-serif" font-size="13" font-weight="bold" lengthAdjust="spacingAndGlyphs" textLength="21" x="83.5" y="93.4966">[2]</text><text fill="#000000" font-family="sans-serif" font-size="13" lengthAdjust="spacingAndGlyphs" textLength="51" x="108.5" y="93.4966">success</text><polygon fill="#A80036" points="368.5,123.5625,378.5,127.5625,368.5,131.5625,372.5,127.5625" style="stroke: #A80036; stroke-width: 1.0;"/><line style="stroke: #A80036; stroke-width: 1.0;" x1="66.5" x2="374.5" y1="127.5625" y2="127.5625"/><text fill="#000000" font-family="sans-serif" font-size="13" font-weight="bold" lengthAdjust="spacingAndGlyphs" textLength="21" x="73.5" y="122.6294">[3]</text><text fill="#000000" font-family="sans-serif" font-size="13" font-weight="bold" lengthAdjust="spacingAndGlyphs" textLength="151" x="98.5" y="122.6294">SDEI_EVENT_ENABLE</text><text fill="#000000" font-family="sans-serif" font-size="13" lengthAdjust="spacingAndGlyphs" textLength="25" x="249.5" y="122.6294">(ev)</text><polygon fill="#A80036" points="77.5,152.6953,67.5,156.6953,77.5,160.6953,73.5,156.6953" style="stroke: #A80036; stroke-width: 1.0;"/><line style="stroke: #A80036; stroke-width: 1.0;" x1="71.5" x2="379.5" y1="156.6953" y2="156.6953"/><text fill="#000000" font-family="sans-serif" font-size="13" font-weight="bold" lengthAdjust="spacingAndGlyphs" textLength="21" x="83.5" y="151.7622">[4]</text><text fill="#000000" font-family="sans-serif" font-size="13" lengthAdjust="spacingAndGlyphs" textLength="51" x="108.5" y="151.7622">success</text><polygon fill="#A80036" points="368.5,181.8281,378.5,185.8281,368.5,189.8281,372.5,185.8281" style="stroke: #A80036; stroke-width: 1.0;"/><line style="stroke: #A80036; stroke-width: 1.0;" x1="66.5" x2="374.5" y1="185.8281" y2="185.8281"/><text fill="#000000" font-family="sans-serif" font-size="13" font-weight="bold" lengthAdjust="spacingAndGlyphs" textLength="21" x="73.5" y="180.895">[5]</text><text fill="#000000" font-family="sans-serif" font-size="13" font-weight="bold" lengthAdjust="spacingAndGlyphs" textLength="129" x="98.5" y="180.895">SDEI_PE_UNMASK</text><text fill="#000000" font-family="sans-serif" font-size="13" lengthAdjust="spacingAndGlyphs" textLength="10" x="227.5" y="180.895">()</text><polygon fill="#A80036" points="77.5,210.9609,67.5,214.9609,77.5,218.9609,73.5,214.9609" style="stroke: #A80036; stroke-width: 1.0;"/><line style="stroke: #A80036; stroke-width: 1.0;" x1="71.5" x2="379.5" y1="214.9609" y2="214.9609"/><text fill="#000000" font-family="sans-serif" font-size="13" font-weight="bold" lengthAdjust="spacingAndGlyphs" textLength="21" x="83.5" y="210.0278">[6]</text><text fill="#000000" font-family="sans-serif" font-size="13" lengthAdjust="spacingAndGlyphs" textLength="8" x="108.5" y="210.0278">1</text><text fill="#000000" font-family="sans-serif" font-size="11" lengthAdjust="spacingAndGlyphs" textLength="142" x="282.75" y="247.3042">&lt;&lt;Business as usual&gt;&gt;</text><polygon fill="#A80036" points="396.5,280.8984,386.5,284.8984,396.5,288.8984,392.5,284.8984" style="stroke: #A80036; stroke-width: 1.0;"/><line style="stroke: #A80036; stroke-width: 1.0; stroke-dasharray: 2.0,2.0;" x1="390.5" x2="733" y1="284.8984" y2="284.8984"/><text fill="#000000" font-family="sans-serif" font-size="13" font-weight="bold" lengthAdjust="spacingAndGlyphs" textLength="21" x="402.5" y="279.9653">[7]</text><text fill="#000000" font-family="sans-serif" font-size="13" font-weight="bold" lengthAdjust="spacingAndGlyphs" textLength="116" x="427.5" y="279.9653">CRITICAL EVENT</text><polygon fill="#FBFB77" filter="url(#f18zq03ani7xpz)" points="306,298.0313,306,323.0313,451,323.0313,451,308.0313,441,298.0313,306,298.0313" style="stroke: #A80036; stroke-width: 1.0;"/><line style="stroke: #A80036; stroke-width: 1.0;" x1="441" x2="441" y1="298.0313" y2="308.0313"/><line style="stroke: #A80036; stroke-width: 1.0;" x1="451" x2="441" y1="308.0313" y2="308.0313"/><text fill="#000000" font-family="sans-serif" font-size="13" lengthAdjust="spacingAndGlyphs" textLength="124" x="312" y="315.0981">Critical event triage</text><polygon fill="#A80036" points="629,349.1641,639,353.1641,629,357.1641,633,353.1641" style="stroke: #A80036; stroke-width: 1.0;"/><line style="stroke: #A80036; stroke-width: 1.0;" x1="380.5" x2="635" y1="353.1641" y2="353.1641"/><text fill="#000000" font-family="sans-serif" font-size="13" font-weight="bold" lengthAdjust="spacingAndGlyphs" textLength="21" x="387.5" y="348.231">[8]</text><text fill="#000000" font-family="sans-serif" font-size="13" lengthAdjust="spacingAndGlyphs" textLength="118" x="412.5" y="348.231">dispatch to handle</text><polygon fill="#FBFB77" filter="url(#f18zq03ani7xpz)" points="563,366.2969,563,391.2969,725,391.2969,725,376.2969,715,366.2969,563,366.2969" style="stroke: #A80036; stroke-width: 1.0;"/><line style="stroke: #A80036; stroke-width: 1.0;" x1="715" x2="715" y1="366.2969" y2="376.2969"/><line style="stroke: #A80036; stroke-width: 1.0;" x1="725" x2="715" y1="376.2969" y2="376.2969"/><text fill="#000000" font-family="sans-serif" font-size="13" lengthAdjust="spacingAndGlyphs" textLength="141" x="569" y="383.3638">Critical event handling</text><polygon fill="#A80036" points="453,417.4297,443,421.4297,453,425.4297,449,421.4297" style="stroke: #A80036; stroke-width: 1.0;"/><line style="stroke: #A80036; stroke-width: 1.0; stroke-dasharray: 2.0,2.0;" x1="447" x2="645" y1="421.4297" y2="421.4297"/><text fill="#000000" font-family="sans-serif" font-size="13" font-weight="bold" lengthAdjust="spacingAndGlyphs" textLength="21" x="459" y="416.4966">[9]</text><text fill="#000000" font-family="sans-serif" font-size="13" lengthAdjust="spacingAndGlyphs" textLength="155" x="484" y="416.4966">sdei_dispatch_event(ev)</text><polygon fill="#FBFB77" filter="url(#f18zq03ani7xpz)" points="353,434.5625,353,459.5625,516,459.5625,516,444.5625,506,434.5625,353,434.5625" style="stroke: #A80036; stroke-width: 1.0;"/><line style="stroke: #A80036; stroke-width: 1.0;" x1="506" x2="506" y1="434.5625" y2="444.5625"/><line style="stroke: #A80036; stroke-width: 1.0;" x1="516" x2="506" y1="444.5625" y2="444.5625"/><text fill="#000000" font-family="sans-serif" font-size="13" lengthAdjust="spacingAndGlyphs" textLength="142" x="359" y="451.6294">Prepare SDEI dispatch</text><polygon fill="#A80036" points="82.5,485.6953,72.5,489.6953,82.5,493.6953,78.5,489.6953" style="stroke: #A80036; stroke-width: 1.0;"/><line style="stroke: #A80036; stroke-width: 1.0;" x1="76.5" x2="431" y1="489.6953" y2="489.6953"/><text fill="#000000" font-family="sans-serif" font-size="13" font-weight="bold" lengthAdjust="spacingAndGlyphs" textLength="30" x="88.5" y="484.7622">[10]</text><text fill="#000000" font-family="sans-serif" font-size="13" lengthAdjust="spacingAndGlyphs" textLength="54" x="122.5" y="484.7622">dispatch</text><polygon fill="#FBFB77" filter="url(#f18zq03ani7xpz)" points="8,502.8281,8,527.8281,111,527.8281,111,512.8281,101,502.8281,8,502.8281" style="stroke: #A80036; stroke-width: 1.0;"/><line style="stroke: #A80036; stroke-width: 1.0;" x1="101" x2="101" y1="502.8281" y2="512.8281"/><line style="stroke: #A80036; stroke-width: 1.0;" x1="111" x2="101" y1="512.8281" y2="512.8281"/><text fill="#000000" font-family="sans-serif" font-size="13" lengthAdjust="spacingAndGlyphs" textLength="82" x="14" y="519.895">SDEI handler</text><polygon fill="#A80036" points="420,553.9609,430,557.9609,420,561.9609,424,557.9609" style="stroke: #A80036; stroke-width: 1.0;"/><line style="stroke: #A80036; stroke-width: 1.0;" x1="66.5" x2="426" y1="557.9609" y2="557.9609"/><text fill="#000000" font-family="sans-serif" font-size="13" font-weight="bold" lengthAdjust="spacingAndGlyphs" textLength="30" x="73.5" y="553.0278">[11]</text><text fill="#000000" font-family="sans-serif" font-size="13" font-weight="bold" lengthAdjust="spacingAndGlyphs" textLength="184" x="107.5" y="553.0278">SDEI_EVENT_COMPLETE()</text><polygon fill="#FBFB77" filter="url(#f18zq03ani7xpz)" points="347,571.0938,347,596.0938,522,596.0938,522,581.0938,512,571.0938,347,571.0938" style="stroke: #A80036; stroke-width: 1.0;"/><line style="stroke: #A80036; stroke-width: 1.0;" x1="512" x2="512" y1="571.0938" y2="581.0938"/><line style="stroke: #A80036; stroke-width: 1.0;" x1="522" x2="512" y1="581.0938" y2="581.0938"/><text fill="#000000" font-family="sans-serif" font-size="13" lengthAdjust="spacingAndGlyphs" textLength="154" x="353" y="588.1606">Complete SDEI dispatch</text><polygon fill="#A80036" points="629,622.2266,639,626.2266,629,630.2266,633,626.2266" style="stroke: #A80036; stroke-width: 1.0;"/><line style="stroke: #A80036; stroke-width: 1.0; stroke-dasharray: 2.0,2.0;" x1="437" x2="635" y1="626.2266" y2="626.2266"/><text fill="#000000" font-family="sans-serif" font-size="13" font-weight="bold" lengthAdjust="spacingAndGlyphs" textLength="30" x="444" y="621.2935">[12]</text><text fill="#000000" font-family="sans-serif" font-size="13" lengthAdjust="spacingAndGlyphs" textLength="39" x="478" y="621.2935">return</text><polygon fill="#A80036" points="391.5,651.3594,381.5,655.3594,391.5,659.3594,387.5,655.3594" style="stroke: #A80036; stroke-width: 1.0;"/><line style="stroke: #A80036; stroke-width: 1.0;" x1="385.5" x2="645" y1="655.3594" y2="655.3594"/><text fill="#000000" font-family="sans-serif" font-size="13" font-weight="bold" lengthAdjust="spacingAndGlyphs" textLength="30" x="397.5" y="650.4263">[13]</text><text fill="#000000" font-family="sans-serif" font-size="13" lengthAdjust="spacingAndGlyphs" textLength="125" x="431.5" y="650.4263">error handling done</text><polygon fill="#A80036" points="77.5,680.4922,67.5,684.4922,77.5,688.4922,73.5,684.4922" style="stroke: #A80036; stroke-width: 1.0;"/><line style="stroke: #A80036; stroke-width: 1.0;" x1="71.5" x2="379.5" y1="684.4922" y2="684.4922"/><text fill="#000000" font-family="sans-serif" font-size="13" font-weight="bold" lengthAdjust="spacingAndGlyphs" textLength="30" x="83.5" y="679.5591">[14]</text><text fill="#000000" font-family="sans-serif" font-size="13" lengthAdjust="spacingAndGlyphs" textLength="197" x="117.5" y="679.5591">resumes preempted execution</text><text fill="#000000" font-family="sans-serif" font-size="11" lengthAdjust="spacingAndGlyphs" textLength="190" x="258.75" y="716.8354">&lt;&lt;Normal execution resumes&gt;&gt;</text><!--
@startuml

autonumber "<b>[#]</b>"
participant "SDEI client" as EL2
participant EL3
participant SDEI
participant "RAS Driver" as RAS

activate EL2
EL2->EL3: **SDEI_EVENT_REGISTER**(ev, handler, ...)
EL3->EL2: success
EL2->EL3: **SDEI_EVENT_ENABLE**(ev)
EL3->EL2: success
EL2->EL3: **SDEI_PE_UNMASK**()
EL3->EL2: 1

... <<Business as usual>> ...

EL3<- -]: **CRITICAL EVENT**
activate EL3 #red
note over EL3: Critical event triage
EL3->RAS: dispatch to handle
deactivate EL3
activate RAS #salmon
note over RAS: Critical event handling
RAS- ->SDEI: sdei_dispatch_event(ev)
deactivate RAS
activate SDEI #salmon
note over SDEI: Prepare SDEI dispatch
SDEI->EL2: dispatch
activate EL2 #salmon
note over EL2: SDEI handler
EL2->SDEI: **SDEI_EVENT_COMPLETE()**
deactivate EL2
note over SDEI: Complete SDEI dispatch
SDEI- ->RAS: return
deactivate SDEI
activate RAS #salmon
RAS->EL3: error handling done
deactivate RAS
EL3->EL2: resumes preempted execution

... <<Normal execution resumes>> ...

@enduml

PlantUML version 1.2017.15(Mon Jul 03 17:45:34 BST 2017)
(GPL source distribution)
Java Runtime: OpenJDK Runtime Environment
JVM: OpenJDK 64-Bit Server VM
Java Version: 11.0.9.1+1-Ubuntu-0ubuntu1.18.04
Operating System: Linux
OS Version: 4.15.0-124-generic
Default Encoding: UTF-8
Language: en
Country: GB
--></g></svg>