<?xml version="1.0" encoding="UTF-8" standalone="no"?><svg xmlns="http://www.w3.org/2000/svg" xmlns:xlink="http://www.w3.org/1999/xlink" contentScriptType="application/ecmascript" contentStyleType="text/css" height="539px" preserveAspectRatio="none" style="width:1350px;height:539px;" version="1.1" viewBox="0 0 1350 539" width="1350px" zoomAndPan="magnify"><defs><filter height="300%" id="f1ncz74qkfmvp2" width="300%" x="-1" y="-1"><feGaussianBlur result="blurOut" stdDeviation="2.0"/><feColorMatrix in="blurOut" result="blurOut2" type="matrix" values="0 0 0 0 0 0 0 0 0 0 0 0 0 0 0 0 0 0 .4 0"/><feOffset dx="4.0" dy="4.0" in="blurOut2" result="blurOut3"/><feBlend in="SourceGraphic" in2="blurOut3" mode="normal"/></filter></defs><g><!--cluster arm_io_storage--><polygon fill="#FFFFFF" filter="url(#f1ncz74qkfmvp2)" points="14,16,139,16,146,38.2969,464,38.2969,464,450,14,450,14,16" style="stroke: #000000; stroke-width: 2.0;"/><line style="stroke: #000000; stroke-width: 2.0;" x1="14" x2="146" y1="38.2969" y2="38.2969"/><text fill="#000000" font-family="sans-serif" font-size="14" font-weight="bold" lengthAdjust="spacingAndGlyphs" textLength="119" x="18" y="30.9951">arm_io_storage</text><!--cluster IO--><polygon fill="#FFFFFF" filter="url(#f1ncz74qkfmvp2)" points="483,252,505,252,512,274.2969,1328,274.2969,1328,527,483,527,483,252" style="stroke: #000000; stroke-width: 2.0;"/><line style="stroke: #000000; stroke-width: 2.0;" x1="483" x2="512" y1="274.2969" y2="274.2969"/><text fill="#000000" font-family="sans-serif" font-size="14" font-weight="bold" lengthAdjust="spacingAndGlyphs" textLength="16" x="487" y="266.9951">IO</text><!--class plat_io_policy--><rect fill="#FEFECE" filter="url(#f1ncz74qkfmvp2)" height="86.4141" id="plat_io_policy" style="stroke: #A80036; stroke-width: 1.5;" width="141" x="35.5" y="88"/><ellipse cx="62.65" cy="104" fill="#ADD1B2" rx="11" ry="11" style="stroke: #A80036; stroke-width: 1.0;"/><path d="M65.6188,109.6406 Q65.0406,109.9375 64.4,110.0781 Q63.7594,110.2344 63.0563,110.2344 Q60.5563,110.2344 59.2281,108.5938 Q57.9156,106.9375 57.9156,103.8125 Q57.9156,100.6875 59.2281,99.0313 Q60.5563,97.375 63.0563,97.375 Q63.7594,97.375 64.4,97.5313 Q65.0563,97.6875 65.6188,97.9844 L65.6188,100.7031 Q64.9938,100.125 64.4,99.8594 Q63.8063,99.5781 63.1813,99.5781 Q61.8375,99.5781 61.15,100.6563 Q60.4625,101.7188 60.4625,103.8125 Q60.4625,105.9063 61.15,106.9844 Q61.8375,108.0469 63.1813,108.0469 Q63.8063,108.0469 64.4,107.7813 Q64.9938,107.5 65.6188,106.9219 L65.6188,109.6406 Z "/><text fill="#000000" font-family="sans-serif" font-size="12" lengthAdjust="spacingAndGlyphs" textLength="82" x="79.35" y="108.1543">plat_io_policy</text><line style="stroke: #A80036; stroke-width: 1.5;" x1="36.5" x2="175.5" y1="120" y2="120"/><text fill="#000000" font-family="sans-serif" font-size="11" lengthAdjust="spacingAndGlyphs" textLength="129" x="41.5" y="134.2104">dev_handle : uintptr_t*</text><text fill="#000000" font-family="sans-serif" font-size="11" lengthAdjust="spacingAndGlyphs" textLength="127" x="41.5" y="147.0151">image_spec : uintptr_t</text><line style="stroke: #A80036; stroke-width: 1.5;" x1="36.5" x2="175.5" y1="153.6094" y2="153.6094"/><text fill="#000000" font-family="sans-serif" font-size="11" font-style="italic" lengthAdjust="spacingAndGlyphs" textLength="82" x="41.5" y="167.8198">check() : fctptr</text><!--class FIP_IMAGE_ID--><rect fill="#FEFECE" filter="url(#f1ncz74qkfmvp2)" height="86.4141" id="FIP_IMAGE_ID" style="stroke: #A80036; stroke-width: 1.5;" width="136" x="320" y="356"/><ellipse cx="345.8" cy="372" fill="#ADD1B2" rx="11" ry="11" style="stroke: #A80036; stroke-width: 1.0;"/><path d="M348.7688,377.6406 Q348.1906,377.9375 347.55,378.0781 Q346.9094,378.2344 346.2063,378.2344 Q343.7063,378.2344 342.3781,376.5938 Q341.0656,374.9375 341.0656,371.8125 Q341.0656,368.6875 342.3781,367.0313 Q343.7063,365.375 346.2063,365.375 Q346.9094,365.375 347.55,365.5313 Q348.2063,365.6875 348.7688,365.9844 L348.7688,368.7031 Q348.1438,368.125 347.55,367.8594 Q346.9563,367.5781 346.3313,367.5781 Q344.9875,367.5781 344.3,368.6563 Q343.6125,369.7188 343.6125,371.8125 Q343.6125,373.9063 344.3,374.9844 Q344.9875,376.0469 346.3313,376.0469 Q346.9563,376.0469 347.55,375.7813 Q348.1438,375.5 348.7688,374.9219 L348.7688,377.6406 Z "/><text fill="#000000" font-family="sans-serif" font-size="12" lengthAdjust="spacingAndGlyphs" textLength="80" x="362.2" y="376.1543">FIP_IMAGE_ID</text><line style="stroke: #A80036; stroke-width: 1.5;" x1="321" x2="455" y1="388" y2="388"/><text fill="#000000" font-family="sans-serif" font-size="11" lengthAdjust="spacingAndGlyphs" textLength="124" x="326" y="402.2104">memmap_dev_handle</text><text fill="#000000" font-family="sans-serif" font-size="11" lengthAdjust="spacingAndGlyphs" textLength="82" x="326" y="415.0151">fip_block_spec</text><line style="stroke: #A80036; stroke-width: 1.5;" x1="321" x2="455" y1="421.6094" y2="421.6094"/><text fill="#000000" font-family="sans-serif" font-size="11" lengthAdjust="spacingAndGlyphs" textLength="96" x="326" y="435.8198">open_memmap()</text><!--class BL2_IMAGE_ID--><rect fill="#FEFECE" filter="url(#f1ncz74qkfmvp2)" height="86.4141" id="BL2_IMAGE_ID" style="stroke: #A80036; stroke-width: 1.5;" width="116" x="22" y="356"/><ellipse cx="37" cy="372" fill="#ADD1B2" rx="11" ry="11" style="stroke: #A80036; stroke-width: 1.0;"/><path d="M39.9688,377.6406 Q39.3906,377.9375 38.75,378.0781 Q38.1094,378.2344 37.4063,378.2344 Q34.9063,378.2344 33.5781,376.5938 Q32.2656,374.9375 32.2656,371.8125 Q32.2656,368.6875 33.5781,367.0313 Q34.9063,365.375 37.4063,365.375 Q38.1094,365.375 38.75,365.5313 Q39.4063,365.6875 39.9688,365.9844 L39.9688,368.7031 Q39.3438,368.125 38.75,367.8594 Q38.1563,367.5781 37.5313,367.5781 Q36.1875,367.5781 35.5,368.6563 Q34.8125,369.7188 34.8125,371.8125 Q34.8125,373.9063 35.5,374.9844 Q36.1875,376.0469 37.5313,376.0469 Q38.1563,376.0469 38.75,375.7813 Q39.3438,375.5 39.9688,374.9219 L39.9688,377.6406 Z "/><text fill="#000000" font-family="sans-serif" font-size="12" lengthAdjust="spacingAndGlyphs" textLength="84" x="51" y="376.1543">BL2_IMAGE_ID</text><line style="stroke: #A80036; stroke-width: 1.5;" x1="23" x2="137" y1="388" y2="388"/><text fill="#000000" font-family="sans-serif" font-size="11" lengthAdjust="spacingAndGlyphs" textLength="84" x="28" y="402.2104">fip_dev_handle</text><text fill="#000000" font-family="sans-serif" font-size="11" lengthAdjust="spacingAndGlyphs" textLength="80" x="28" y="415.0151">bl2_uuid_spec</text><line style="stroke: #A80036; stroke-width: 1.5;" x1="23" x2="137" y1="421.6094" y2="421.6094"/><text fill="#000000" font-family="sans-serif" font-size="11" lengthAdjust="spacingAndGlyphs" textLength="56" x="28" y="435.8198">open_fip()</text><!--class xxx_IMAGE_ID--><rect fill="#FEFECE" filter="url(#f1ncz74qkfmvp2)" height="86.4141" id="xxx_IMAGE_ID" style="stroke: #A80036; stroke-width: 1.5;" width="112" x="173" y="356"/><ellipse cx="188" cy="372" fill="#ADD1B2" rx="11" ry="11" style="stroke: #A80036; stroke-width: 1.0;"/><path d="M190.9688,377.6406 Q190.3906,377.9375 189.75,378.0781 Q189.1094,378.2344 188.4063,378.2344 Q185.9063,378.2344 184.5781,376.5938 Q183.2656,374.9375 183.2656,371.8125 Q183.2656,368.6875 184.5781,367.0313 Q185.9063,365.375 188.4063,365.375 Q189.1094,365.375 189.75,365.5313 Q190.4063,365.6875 190.9688,365.9844 L190.9688,368.7031 Q190.3438,368.125 189.75,367.8594 Q189.1563,367.5781 188.5313,367.5781 Q187.1875,367.5781 186.5,368.6563 Q185.8125,369.7188 185.8125,371.8125 Q185.8125,373.9063 186.5,374.9844 Q187.1875,376.0469 188.5313,376.0469 Q189.1563,376.0469 189.75,375.7813 Q190.3438,375.5 190.9688,374.9219 L190.9688,377.6406 Z "/><text fill="#000000" font-family="sans-serif" font-size="12" lengthAdjust="spacingAndGlyphs" textLength="80" x="202" y="376.1543">xxx_IMAGE_ID</text><line style="stroke: #A80036; stroke-width: 1.5;" x1="174" x2="284" y1="388" y2="388"/><text fill="#000000" font-family="sans-serif" font-size="11" lengthAdjust="spacingAndGlyphs" textLength="84" x="179" y="402.2104">fip_dev_handle</text><text fill="#000000" font-family="sans-serif" font-size="11" lengthAdjust="spacingAndGlyphs" textLength="81" x="179" y="415.0151">xxx_uuid_spec</text><line style="stroke: #A80036; stroke-width: 1.5;" x1="174" x2="284" y1="421.6094" y2="421.6094"/><text fill="#000000" font-family="sans-serif" font-size="11" lengthAdjust="spacingAndGlyphs" textLength="56" x="179" y="435.8198">open_fip()</text><!--class arm_io_storage--><rect fill="#FEFECE" filter="url(#f1ncz74qkfmvp2)" height="176.0469" id="arm_io_storage" style="stroke: #A80036; stroke-width: 1.5;" width="244" x="212" y="43"/><ellipse cx="281.75" cy="59" fill="#ADD1B2" rx="11" ry="11" style="stroke: #A80036; stroke-width: 1.0;"/><path d="M284.7188,64.6406 Q284.1406,64.9375 283.5,65.0781 Q282.8594,65.2344 282.1563,65.2344 Q279.6563,65.2344 278.3281,63.5938 Q277.0156,61.9375 277.0156,58.8125 Q277.0156,55.6875 278.3281,54.0313 Q279.6563,52.375 282.1563,52.375 Q282.8594,52.375 283.5,52.5313 Q284.1563,52.6875 284.7188,52.9844 L284.7188,55.7031 Q284.0938,55.125 283.5,54.8594 Q282.9063,54.5781 282.2813,54.5781 Q280.9375,54.5781 280.25,55.6563 Q279.5625,56.7188 279.5625,58.8125 Q279.5625,60.9063 280.25,61.9844 Q280.9375,63.0469 282.2813,63.0469 Q282.9063,63.0469 283.5,62.7813 Q284.0938,62.5 284.7188,61.9219 L284.7188,64.6406 Z "/><text fill="#000000" font-family="sans-serif" font-size="12" lengthAdjust="spacingAndGlyphs" textLength="96" x="302.25" y="63.1543">arm_io_storage</text><line style="stroke: #A80036; stroke-width: 1.5;" x1="213" x2="455" y1="75" y2="75"/><text fill="#000000" font-family="sans-serif" font-size="11" lengthAdjust="spacingAndGlyphs" textLength="192" x="218" y="89.2104">fip_dev_con : io_dev_connector_t*</text><text fill="#000000" font-family="sans-serif" font-size="11" lengthAdjust="spacingAndGlyphs" textLength="143" x="218" y="102.0151">fip_dev_handle : uintptr_t</text><text fill="#000000" font-family="sans-serif" font-size="11" lengthAdjust="spacingAndGlyphs" textLength="232" x="218" y="114.8198">memmap_dev_con : io_dev_connector_t*</text><text fill="#000000" font-family="sans-serif" font-size="11" lengthAdjust="spacingAndGlyphs" textLength="183" x="218" y="127.6245">memmap_dev_handle : uintptr_t</text><text fill="#000000" font-family="sans-serif" font-size="11" lengthAdjust="spacingAndGlyphs" textLength="182" x="218" y="140.4292">fip_block_spec : io_block_spec_t</text><text fill="#000000" font-family="sans-serif" font-size="11" lengthAdjust="spacingAndGlyphs" textLength="159" x="218" y="153.2339">policies : plat_io_policy[1..*]</text><line style="stroke: #A80036; stroke-width: 1.5;" x1="213" x2="455" y1="159.8281" y2="159.8281"/><rect fill="#F24D5C" height="6" style="stroke: #C82930; stroke-width: 1.0;" width="6" x="220" y="168.7305"/><text fill="#000000" font-family="sans-serif" font-size="11" lengthAdjust="spacingAndGlyphs" textLength="56" x="232" y="174.0386">open_fip()</text><rect fill="#F24D5C" height="6" style="stroke: #C82930; stroke-width: 1.0;" width="6" x="220" y="181.5352"/><text fill="#000000" font-family="sans-serif" font-size="11" lengthAdjust="spacingAndGlyphs" textLength="96" x="232" y="186.8433">open_memmap()</text><ellipse cx="223" cy="197.3398" fill="#84BE84" rx="3" ry="3" style="stroke: #038048; stroke-width: 1.0;"/><text fill="#000000" font-family="sans-serif" font-size="11" lengthAdjust="spacingAndGlyphs" textLength="85" x="232" y="199.6479">arm_io_setup()</text><ellipse cx="223" cy="210.1445" fill="#84BE84" rx="3" ry="3" style="stroke: #038048; stroke-width: 1.0;"/><text fill="#000000" font-family="sans-serif" font-size="11" lengthAdjust="spacingAndGlyphs" textLength="139" x="232" y="212.4526">plat_get_image_source()</text><!--class io_storage--><rect fill="#FEFECE" filter="url(#f1ncz74qkfmvp2)" height="184.8516" id="io_storage" style="stroke: #A80036; stroke-width: 1.5;" width="146" x="491" y="306.5"/><ellipse cx="527.6" cy="322.5" fill="#ADD1B2" rx="11" ry="11" style="stroke: #A80036; stroke-width: 1.0;"/><path d="M530.5688,328.1406 Q529.9906,328.4375 529.35,328.5781 Q528.7094,328.7344 528.0063,328.7344 Q525.5063,328.7344 524.1781,327.0938 Q522.8656,325.4375 522.8656,322.3125 Q522.8656,319.1875 524.1781,317.5313 Q525.5063,315.875 528.0063,315.875 Q528.7094,315.875 529.35,316.0313 Q530.0063,316.1875 530.5688,316.4844 L530.5688,319.2031 Q529.9438,318.625 529.35,318.3594 Q528.7563,318.0781 528.1313,318.0781 Q526.7875,318.0781 526.1,319.1563 Q525.4125,320.2188 525.4125,322.3125 Q525.4125,324.4063 526.1,325.4844 Q526.7875,326.5469 528.1313,326.5469 Q528.7563,326.5469 529.35,326.2813 Q529.9438,326 530.5688,325.4219 L530.5688,328.1406 Z "/><text fill="#000000" font-family="sans-serif" font-size="12" lengthAdjust="spacingAndGlyphs" textLength="66" x="546.4" y="326.6543">io_storage</text><line style="stroke: #A80036; stroke-width: 1.5;" x1="492" x2="636" y1="338.5" y2="338.5"/><text fill="#000000" font-family="sans-serif" font-size="11" lengthAdjust="spacingAndGlyphs" textLength="78" x="497" y="352.7104">io_dev_open()</text><text fill="#000000" font-family="sans-serif" font-size="11" lengthAdjust="spacingAndGlyphs" textLength="67" x="497" y="365.5151">io_dev_init()</text><text fill="#000000" font-family="sans-serif" font-size="11" lengthAdjust="spacingAndGlyphs" textLength="80" x="497" y="378.3198">io_dev_close()</text><text fill="#000000" font-family="sans-serif" font-size="11" lengthAdjust="spacingAndGlyphs" textLength="52" x="497" y="407.9292">io_open()</text><text fill="#000000" font-family="sans-serif" font-size="11" lengthAdjust="spacingAndGlyphs" textLength="51" x="497" y="420.7339">io_seek()</text><text fill="#000000" font-family="sans-serif" font-size="11" lengthAdjust="spacingAndGlyphs" textLength="46" x="497" y="433.5386">io_size()</text><text fill="#000000" font-family="sans-serif" font-size="11" lengthAdjust="spacingAndGlyphs" textLength="50" x="497" y="446.3433">io_read()</text><text fill="#000000" font-family="sans-serif" font-size="11" lengthAdjust="spacingAndGlyphs" textLength="52" x="497" y="459.1479">io_write()</text><text fill="#000000" font-family="sans-serif" font-size="11" lengthAdjust="spacingAndGlyphs" textLength="54" x="497" y="471.9526">io_close()</text><text fill="#000000" font-family="sans-serif" font-size="11" lengthAdjust="spacingAndGlyphs" textLength="111" x="497" y="484.7573">io_register_device()</text><line style="stroke: #A80036; stroke-width: 1.0; stroke-dasharray: 1.0,2.0;" x1="492" x2="495" y1="391.3164" y2="391.3164"/><text fill="#000000" font-family="sans-serif" font-size="11" lengthAdjust="spacingAndGlyphs" textLength="138" x="495" y="394.6245">synchronous operations</text><line style="stroke: #A80036; stroke-width: 1.0; stroke-dasharray: 1.0,2.0;" x1="633" x2="636" y1="391.3164" y2="391.3164"/><!--class io_fip--><rect fill="#FEFECE" filter="url(#f1ncz74qkfmvp2)" height="82.4141" id="io_fip" style="stroke: #A80036; stroke-width: 1.5;" width="184" x="1136" y="358"/><ellipse cx="1207.75" cy="374" fill="#ADD1B2" rx="11" ry="11" style="stroke: #A80036; stroke-width: 1.0;"/><path d="M1210.7188,379.6406 Q1210.1406,379.9375 1209.5,380.0781 Q1208.8594,380.2344 1208.1563,380.2344 Q1205.6563,380.2344 1204.3281,378.5938 Q1203.0156,376.9375 1203.0156,373.8125 Q1203.0156,370.6875 1204.3281,369.0313 Q1205.6563,367.375 1208.1563,367.375 Q1208.8594,367.375 1209.5,367.5313 Q1210.1563,367.6875 1210.7188,367.9844 L1210.7188,370.7031 Q1210.0938,370.125 1209.5,369.8594 Q1208.9063,369.5781 1208.2813,369.5781 Q1206.9375,369.5781 1206.25,370.6563 Q1205.5625,371.7188 1205.5625,373.8125 Q1205.5625,375.9063 1206.25,376.9844 Q1206.9375,378.0469 1208.2813,378.0469 Q1208.9063,378.0469 1209.5,377.7813 Q1210.0938,377.5 1210.7188,376.9219 L1210.7188,379.6406 Z "/><text fill="#000000" font-family="sans-serif" font-size="12" lengthAdjust="spacingAndGlyphs" textLength="32" x="1228.25" y="378.1543">io_fip</text><line style="stroke: #A80036; stroke-width: 1.5;" x1="1137" x2="1319" y1="390" y2="390"/><text fill="#000000" font-family="sans-serif" font-size="11" lengthAdjust="spacingAndGlyphs" textLength="115" x="1142" y="404.2104">register_io_dev_fip()</text><text fill="#000000" font-family="sans-serif" font-size="11" lengthAdjust="spacingAndGlyphs" textLength="172" x="1142" y="433.8198">fip_dev_funcs : io_dev_funcs_t</text><line style="stroke: #A80036; stroke-width: 1.0; stroke-dasharray: 1.0,2.0;" x1="1137" x2="1159.5" y1="417.207" y2="417.207"/><text fill="#000000" font-family="sans-serif" font-size="11" lengthAdjust="spacingAndGlyphs" textLength="137" x="1159.5" y="420.5151">io_dev_funcs_t interface</text><line style="stroke: #A80036; stroke-width: 1.0; stroke-dasharray: 1.0,2.0;" x1="1296.5" x2="1319" y1="417.207" y2="417.207"/><!--class io_memmap--><rect fill="#FEFECE" filter="url(#f1ncz74qkfmvp2)" height="82.4141" id="io_memmap" style="stroke: #A80036; stroke-width: 1.5;" width="224" x="877" y="358"/><ellipse cx="947.75" cy="374" fill="#ADD1B2" rx="11" ry="11" style="stroke: #A80036; stroke-width: 1.0;"/><path d="M950.7188,379.6406 Q950.1406,379.9375 949.5,380.0781 Q948.8594,380.2344 948.1563,380.2344 Q945.6563,380.2344 944.3281,378.5938 Q943.0156,376.9375 943.0156,373.8125 Q943.0156,370.6875 944.3281,369.0313 Q945.6563,367.375 948.1563,367.375 Q948.8594,367.375 949.5,367.5313 Q950.1563,367.6875 950.7188,367.9844 L950.7188,370.7031 Q950.0938,370.125 949.5,369.8594 Q948.9063,369.5781 948.2813,369.5781 Q946.9375,369.5781 946.25,370.6563 Q945.5625,371.7188 945.5625,373.8125 Q945.5625,375.9063 946.25,376.9844 Q946.9375,378.0469 948.2813,378.0469 Q948.9063,378.0469 949.5,377.7813 Q950.0938,377.5 950.7188,376.9219 L950.7188,379.6406 Z "/><text fill="#000000" font-family="sans-serif" font-size="12" lengthAdjust="spacingAndGlyphs" textLength="74" x="968.25" y="378.1543">io_memmap</text><line style="stroke: #A80036; stroke-width: 1.5;" x1="878" x2="1100" y1="390" y2="390"/><text fill="#000000" font-family="sans-serif" font-size="11" lengthAdjust="spacingAndGlyphs" textLength="155" x="883" y="404.2104">register_io_dev_memmap()</text><text fill="#000000" font-family="sans-serif" font-size="11" lengthAdjust="spacingAndGlyphs" textLength="212" x="883" y="433.8198">memmap_dev_funcs : io_dev_funcs_t</text><line style="stroke: #A80036; stroke-width: 1.0; stroke-dasharray: 1.0,2.0;" x1="878" x2="920.5" y1="417.207" y2="417.207"/><text fill="#000000" font-family="sans-serif" font-size="11" lengthAdjust="spacingAndGlyphs" textLength="137" x="920.5" y="420.5151">io_dev_funcs_t interface</text><line style="stroke: #A80036; stroke-width: 1.0; stroke-dasharray: 1.0,2.0;" x1="1057.5" x2="1100" y1="417.207" y2="417.207"/><!--class io_driver--><rect fill="#FEFECE" filter="url(#f1ncz74qkfmvp2)" height="240.0703" id="io_driver" style="stroke: #A80036; stroke-width: 1.5;" width="170" x="672" y="279"/><ellipse cx="726.75" cy="295" fill="#B4A7E5" rx="11" ry="11" style="stroke: #A80036; stroke-width: 1.0;"/><path d="M722.6719,290.7656 L722.6719,288.6094 L730.0625,288.6094 L730.0625,290.7656 L727.5938,290.7656 L727.5938,298.8438 L730.0625,298.8438 L730.0625,301 L722.6719,301 L722.6719,298.8438 L725.1406,298.8438 L725.1406,290.7656 L722.6719,290.7656 Z "/><text fill="#000000" font-family="sans-serif" font-size="12" font-style="italic" lengthAdjust="spacingAndGlyphs" textLength="52" x="747.25" y="299.1543">io_driver</text><line style="stroke: #A80036; stroke-width: 1.5;" x1="673" x2="841" y1="311" y2="311"/><text fill="#000000" font-family="sans-serif" font-size="11" lengthAdjust="spacingAndGlyphs" textLength="57" x="678" y="325.2104">io_entity_t</text><text fill="#000000" font-family="sans-serif" font-size="11" lengthAdjust="spacingAndGlyphs" textLength="73" x="678" y="338.0151">io_dev_info_t</text><text fill="#000000" font-family="sans-serif" font-size="11" lengthAdjust="spacingAndGlyphs" textLength="62" x="678" y="367.6245">dev_open()</text><line style="stroke: #A80036; stroke-width: 1.0; stroke-dasharray: 1.0,2.0;" x1="673" x2="676" y1="351.0117" y2="351.0117"/><text fill="#000000" font-family="sans-serif" font-size="11" lengthAdjust="spacingAndGlyphs" textLength="162" x="676" y="354.3198">io_dev_connector_t interface</text><line style="stroke: #A80036; stroke-width: 1.0; stroke-dasharray: 1.0,2.0;" x1="838" x2="841" y1="351.0117" y2="351.0117"/><text fill="#000000" font-family="sans-serif" font-size="11" lengthAdjust="spacingAndGlyphs" textLength="32" x="678" y="397.2339">type()</text><text fill="#000000" font-family="sans-serif" font-size="11" lengthAdjust="spacingAndGlyphs" textLength="36" x="678" y="410.0386">open()</text><text fill="#000000" font-family="sans-serif" font-size="11" lengthAdjust="spacingAndGlyphs" textLength="35" x="678" y="422.8433">seek()</text><text fill="#000000" font-family="sans-serif" font-size="11" lengthAdjust="spacingAndGlyphs" textLength="30" x="678" y="435.6479">size()</text><text fill="#000000" font-family="sans-serif" font-size="11" lengthAdjust="spacingAndGlyphs" textLength="34" x="678" y="448.4526">read()</text><text fill="#000000" font-family="sans-serif" font-size="11" lengthAdjust="spacingAndGlyphs" textLength="36" x="678" y="461.2573">write()</text><text fill="#000000" font-family="sans-serif" font-size="11" lengthAdjust="spacingAndGlyphs" textLength="38" x="678" y="474.062">close()</text><text fill="#000000" font-family="sans-serif" font-size="11" lengthAdjust="spacingAndGlyphs" textLength="51" x="678" y="486.8667">dev_init()</text><text fill="#000000" font-family="sans-serif" font-size="11" lengthAdjust="spacingAndGlyphs" textLength="64" x="678" y="499.6714">dev_close()</text><text fill="#000000" font-family="sans-serif" font-size="11" lengthAdjust="spacingAndGlyphs" textLength="111" x="678" y="512.4761">io_register_device()</text><line style="stroke: #A80036; stroke-width: 1.0; stroke-dasharray: 1.0,2.0;" x1="673" x2="688.5" y1="380.6211" y2="380.6211"/><text fill="#000000" font-family="sans-serif" font-size="11" lengthAdjust="spacingAndGlyphs" textLength="137" x="688.5" y="383.9292">io_dev_funcs_t interface</text><line style="stroke: #A80036; stroke-width: 1.0; stroke-dasharray: 1.0,2.0;" x1="825.5" x2="841" y1="380.6211" y2="380.6211"/><!--link plat_io_policy to FIP_IMAGE_ID--><path d="M155.7986,188.4533 C167.7414,199.7729 181.094,210.6993 195,219 C238.0968,244.7251 263.7075,220.7716 303,252 C336.6953,278.7799 359.6037,322.8266 373.0694,355.7349 " fill="none" id="plat_io_policy-FIP_IMAGE_ID" style="stroke: #A80036; stroke-width: 1.0;"/><polygon fill="none" points="150.6344,193.1876,141.4896,174.0728,160.5585,183.3128,150.6344,193.1876" style="stroke: #A80036; stroke-width: 1.0;"/><!--link plat_io_policy to BL2_IMAGE_ID--><path d="M99.8759,194.1249 C95.0522,243.8464 88.4551,311.8478 84.2101,355.6037 " fill="none" id="plat_io_policy-BL2_IMAGE_ID" style="stroke: #A80036; stroke-width: 1.0;"/><polygon fill="none" points="92.924,193.2894,101.8227,174.0588,106.8586,194.6413,92.924,193.2894" style="stroke: #A80036; stroke-width: 1.0;"/><!--link plat_io_policy to xxx_IMAGE_ID--><path d="M134.2106,192.467 C157.0934,242.3255 188.7769,311.3594 209.083,355.6037 " fill="none" id="plat_io_policy-xxx_IMAGE_ID" style="stroke: #A80036; stroke-width: 1.0;"/><polygon fill="none" points="127.7426,195.1557,125.7621,174.0588,140.4665,189.316,127.7426,195.1557" style="stroke: #A80036; stroke-width: 1.0;"/><!--link arm_io_storage to plat_io_policy--><path d="M198.68,131 C191.3882,131 184.0965,131 176.8047,131 " fill="none" id="arm_io_storage-plat_io_policy" style="stroke: #A80036; stroke-width: 1.0;"/><polygon fill="#A80036" points="211.8052,131,205.8052,127,199.8052,131,205.8052,135,211.8052,131" style="stroke: #A80036; stroke-width: 1.0;"/><text fill="#000000" font-family="sans-serif" font-size="13" lengthAdjust="spacingAndGlyphs" textLength="23" x="181.1553" y="127.1712">1..*</text><!--link arm_io_storage to io_driver--><path d="M456.3474,158.3379 C520.2535,177.0174 596.9992,206.768 655,252 C665.0429,259.832 674.4852,268.9258 683.2618,278.6764 " fill="none" id="arm_io_storage-io_driver" style="stroke: #A80036; stroke-width: 1.0; stroke-dasharray: 7.0,7.0;"/><!--link arm_io_storage to io_fip--><path d="M456.0611,138.5266 C647.9791,152.2156 1009.7108,186.065 1119,252 C1160.2139,276.8647 1190.8217,323.7825 1208.9425,357.9434 " fill="none" id="arm_io_storage-io_fip" style="stroke: #A80036; stroke-width: 1.0; stroke-dasharray: 7.0,7.0;"/><!--link arm_io_storage to io_memmap--><path d="M456.1621,150.16 C589.45,172.6161 792.8223,211.8855 860,252 C903.7283,278.1119 940.5011,324.0924 963.4565,357.6931 " fill="none" id="arm_io_storage-io_memmap" style="stroke: #A80036; stroke-width: 1.0; stroke-dasharray: 7.0,7.0;"/><!--link arm_io_storage to io_storage--><path d="M441.0577,219.1496 C451.9596,229.7798 462.5007,240.8376 472,252 C486.1462,268.623 499.6587,287.6206 511.7618,306.3146 " fill="none" id="arm_io_storage-io_storage" style="stroke: #A80036; stroke-width: 1.0; stroke-dasharray: 7.0,7.0;"/><!--
@startuml

package arm_io_storage {

	class plat_io_policy {
		dev_handle : uintptr_t*
		image_spec : uintptr_t
		{abstract} check() : fctptr
	}

	class FIP_IMAGE_ID {
		memmap_dev_handle
		fip_block_spec
		open_memmap()
	}

	class BL2_IMAGE_ID{
		fip_dev_handle
		bl2_uuid_spec
		open_fip()
	}

	class xxx_IMAGE_ID{
		fip_dev_handle
		xxx_uuid_spec
		open_fip()
	}

	class arm_io_storage {
		fip_dev_con : io_dev_connector_t*
		fip_dev_handle : uintptr_t
		memmap_dev_con : io_dev_connector_t*
		memmap_dev_handle : uintptr_t

		fip_block_spec : io_block_spec_t

		policies : plat_io_policy[1..*]

		-open_fip()
		-open_memmap()

		+arm_io_setup()
		+plat_get_image_source()
	}

	FIP_IMAGE_ID -up-|> plat_io_policy
	BL2_IMAGE_ID -up-|> plat_io_policy
	xxx_IMAGE_ID -up-|> plat_io_policy

	arm_io_storage *-"1..*" plat_io_policy
}

package IO {
	class  io_storage {
		io_dev_open()
		io_dev_init()
		io_dev_close()

		.. synchronous operations ..
		io_open()
		io_seek()
		io_size()
		io_read()
		io_write()
		io_close()

		io_register_device()
	}

	class io_fip {
		register_io_dev_fip()
		.. io_dev_funcs_t interface ..
		fip_dev_funcs : io_dev_funcs_t
	}

	class io_memmap {
		register_io_dev_memmap()
		.. io_dev_funcs_t interface ..
		memmap_dev_funcs : io_dev_funcs_t
	}

	interface io_driver {
		io_entity_t
		io_dev_info_t

		.. io_dev_connector_t interface ..
		dev_open()

		.. io_dev_funcs_t interface ..
			type()
			open()
			seek()
			size()
			read()
			write()
			close()
			dev_init()
			dev_close()

		io_register_device()
	}
}
arm_io_storage .. io_driver
arm_io_storage .. io_fip
arm_io_storage .. io_memmap
arm_io_storage .. io_storage


@enduml

PlantUML version 1.2017.15(Mon Jul 03 17:45:34 BST 2017)
(GPL source distribution)
Java Runtime: OpenJDK Runtime Environment
JVM: OpenJDK 64-Bit Server VM
Java Version: 11.0.9.1+1-Ubuntu-0ubuntu1.18.04
Operating System: Linux
OS Version: 4.15.0-124-generic
Default Encoding: UTF-8
Language: en
Country: GB
--></g></svg>