<?xml version="1.0" encoding="UTF-8" standalone="no"?><svg xmlns="http://www.w3.org/2000/svg" xmlns:xlink="http://www.w3.org/1999/xlink" contentScriptType="application/ecmascript" contentStyleType="text/css" height="1654px" preserveAspectRatio="none" style="width:1171px;height:1654px;" version="1.1" viewBox="0 0 1171 1654" width="1171px" zoomAndPan="magnify"><defs><filter height="300%" id="f1ar5kp08cajq6" width="300%" x="-1" y="-1"><feGaussianBlur result="blurOut" stdDeviation="2.0"/><feColorMatrix in="blurOut" result="blurOut2" type="matrix" values="0 0 0 0 0 0 0 0 0 0 0 0 0 0 0 0 0 0 .4 0"/><feOffset dx="4.0" dy="4.0" in="blurOut2" result="blurOut3"/><feBlend in="SourceGraphic" in2="blurOut3" mode="normal"/></filter></defs><g><!--cluster SP_vendor_1--><polygon fill="#FFFFFF" filter="url(#f1ar5kp08cajq6)" points="14,16,120,16,127,38.2969,406,38.2969,406,163,14,163,14,16" style="stroke: #000000; stroke-width: 2.0;"/><line style="stroke: #000000; stroke-width: 2.0;" x1="14" x2="127" y1="38.2969" y2="38.2969"/><text fill="#000000" font-family="sans-serif" font-size="14" font-weight="bold" lengthAdjust="spacingAndGlyphs" textLength="100" x="18" y="30.9951">SP_vendor_1</text><!--cluster SP_vendor_2--><polygon fill="#FFFFFF" filter="url(#f1ar5kp08cajq6)" points="425,24,531,24,538,46.2969,820,46.2969,820,155,425,155,425,24" style="stroke: #000000; stroke-width: 2.0;"/><line style="stroke: #000000; stroke-width: 2.0;" x1="425" x2="538" y1="46.2969" y2="46.2969"/><text fill="#000000" font-family="sans-serif" font-size="14" font-weight="bold" lengthAdjust="spacingAndGlyphs" textLength="100" x="429" y="38.9951">SP_vendor_2</text><!--entity sp_binary_1--><rect fill="#FEFECE" filter="url(#f1ar5kp08cajq6)" height="39.2969" style="stroke: #000000; stroke-width: 1.5;" width="111" x="251.5" y="79.5"/><polygon fill="#FEFECE" points="345.5,84.5,345.5,98.5,357.5,98.5,357.5,90.5,351.5,84.5,345.5,84.5" style="stroke: #000000; stroke-width: 1.5;"/><line style="stroke: #000000; stroke-width: 1.5;" x1="351.5" x2="351.5" y1="84.5" y2="90.5"/><line style="stroke: #000000; stroke-width: 1.5;" x1="357.5" x2="351.5" y1="90.5" y2="90.5"/><text fill="#000000" font-family="sans-serif" font-size="14" lengthAdjust="spacingAndGlyphs" textLength="81" x="261.5" y="105.4951">sp_binary_1</text><!--entity sp_manifest_1--><rect fill="#FEFECE" filter="url(#f1ar5kp08cajq6)" height="112.4844" style="stroke: #000000; stroke-width: 1.5;" width="194" x="22" y="43"/><polygon fill="#FEFECE" points="199,48,199,62,211,62,211,54,205,48,199,48" style="stroke: #000000; stroke-width: 1.5;"/><line style="stroke: #000000; stroke-width: 1.5;" x1="205" x2="205" y1="48" y2="54"/><line style="stroke: #000000; stroke-width: 1.5;" x1="211" x2="205" y1="54" y2="54"/><text fill="#000000" font-family="sans-serif" font-size="14" lengthAdjust="spacingAndGlyphs" textLength="99" x="32" y="68.9951">sp_manifest_1</text><line style="stroke: #000000; stroke-width: 1.0;" x1="23" x2="215" y1="72.2969" y2="72.2969"/><line style="stroke: #000000; stroke-width: 1.0;" x1="23" x2="215" y1="74.2969" y2="74.2969"/><text fill="#000000" font-family="sans-serif" font-size="14" lengthAdjust="spacingAndGlyphs" textLength="75" x="38" y="89.292">UUID = xxx</text><text fill="#000000" font-family="sans-serif" font-size="14" lengthAdjust="spacingAndGlyphs" textLength="152" x="38" y="105.5889">load_address = 0xaaa</text><text fill="#000000" font-family="sans-serif" font-size="14" lengthAdjust="spacingAndGlyphs" textLength="94" x="38" y="121.8857">owner = "Sip"</text><text fill="#000000" font-family="sans-serif" font-size="14" lengthAdjust="spacingAndGlyphs" textLength="12" x="38" y="138.1826">...</text><!--entity sp_binary_2--><rect fill="#FEFECE" filter="url(#f1ar5kp08cajq6)" height="39.2969" style="stroke: #000000; stroke-width: 1.5;" width="111" x="665.5" y="79.5"/><polygon fill="#FEFECE" points="759.5,84.5,759.5,98.5,771.5,98.5,771.5,90.5,765.5,84.5,759.5,84.5" style="stroke: #000000; stroke-width: 1.5;"/><line style="stroke: #000000; stroke-width: 1.5;" x1="765.5" x2="765.5" y1="84.5" y2="90.5"/><line style="stroke: #000000; stroke-width: 1.5;" x1="771.5" x2="765.5" y1="90.5" y2="90.5"/><text fill="#000000" font-family="sans-serif" font-size="14" lengthAdjust="spacingAndGlyphs" textLength="81" x="675.5" y="105.4951">sp_binary_2</text><!--entity sp_manifest_2--><rect fill="#FEFECE" filter="url(#f1ar5kp08cajq6)" height="96.1875" style="stroke: #000000; stroke-width: 1.5;" width="197" x="433.5" y="51"/><polygon fill="#FEFECE" points="613.5,56,613.5,70,625.5,70,625.5,62,619.5,56,613.5,56" style="stroke: #000000; stroke-width: 1.5;"/><line style="stroke: #000000; stroke-width: 1.5;" x1="619.5" x2="619.5" y1="56" y2="62"/><line style="stroke: #000000; stroke-width: 1.5;" x1="625.5" x2="619.5" y1="62" y2="62"/><text fill="#000000" font-family="sans-serif" font-size="14" lengthAdjust="spacingAndGlyphs" textLength="99" x="443.5" y="76.9951">sp_manifest_2</text><line style="stroke: #000000; stroke-width: 1.0;" x1="434.5" x2="629.5" y1="80.2969" y2="80.2969"/><line style="stroke: #000000; stroke-width: 1.0;" x1="434.5" x2="629.5" y1="82.2969" y2="82.2969"/><text fill="#000000" font-family="sans-serif" font-size="14" lengthAdjust="spacingAndGlyphs" textLength="75" x="449.5" y="97.292">UUID = yyy</text><text fill="#000000" font-family="sans-serif" font-size="14" lengthAdjust="spacingAndGlyphs" textLength="155" x="449.5" y="113.5889">load_address = 0xbbb</text><text fill="#000000" font-family="sans-serif" font-size="14" lengthAdjust="spacingAndGlyphs" textLength="98" x="449.5" y="129.8857">owner = "Plat"</text><!--entity tb_fw_config.dts--><rect fill="#FEFECE" filter="url(#f1ar5kp08cajq6)" height="193.375" style="stroke: #000000; stroke-width: 1.5;" width="197" x="903.5" y="528"/><polygon fill="#FEFECE" points="1083.5,533,1083.5,547,1095.5,547,1095.5,539,1089.5,533,1083.5,533" style="stroke: #000000; stroke-width: 1.5;"/><line style="stroke: #000000; stroke-width: 1.5;" x1="1089.5" x2="1089.5" y1="533" y2="539"/><line style="stroke: #000000; stroke-width: 1.5;" x1="1095.5" x2="1089.5" y1="539" y2="539"/><text fill="#000000" font-family="sans-serif" font-size="14" lengthAdjust="spacingAndGlyphs" textLength="111" x="913.5" y="553.9951">tb_fw_config.dts</text><line style="stroke: #000000; stroke-width: 1.0;" x1="904.5" x2="1099.5" y1="557.2969" y2="557.2969"/><text fill="#000000" font-family="sans-serif" font-size="14" lengthAdjust="spacingAndGlyphs" textLength="117" x="919.5" y="574.292">secure-partitions</text><line style="stroke: #000000; stroke-width: 1.0;" x1="904.5" x2="1099.5" y1="581.5938" y2="581.5938"/><line style="stroke: #000000; stroke-width: 1.0;" x1="904.5" x2="1099.5" y1="583.5938" y2="583.5938"/><text fill="#000000" font-family="sans-serif" font-size="14" lengthAdjust="spacingAndGlyphs" textLength="88" x="919.5" y="598.5889">spkg_1 UUID</text><text fill="#000000" font-family="sans-serif" font-size="14" lengthAdjust="spacingAndGlyphs" textLength="146" x="919.5" y="614.8857">spkg_1 load_address</text><line style="stroke: #000000; stroke-width: 1.0;" x1="904.5" x2="1099.5" y1="622.1875" y2="622.1875"/><text fill="#000000" font-family="sans-serif" font-size="14" lengthAdjust="spacingAndGlyphs" textLength="88" x="919.5" y="639.1826">spkg_2 UUID</text><text fill="#000000" font-family="sans-serif" font-size="14" lengthAdjust="spacingAndGlyphs" textLength="146" x="919.5" y="655.4795">spkg_2 load_address</text><line style="stroke: #000000; stroke-width: 1.0;" x1="904.5" x2="1099.5" y1="662.7813" y2="662.7813"/><text fill="#000000" font-family="sans-serif" font-size="14" lengthAdjust="spacingAndGlyphs" textLength="12" x="919.5" y="679.7764">...</text><line style="stroke: #000000; stroke-width: 1.0;" x1="904.5" x2="1099.5" y1="687.0781" y2="687.0781"/><line style="stroke: #000000; stroke-width: 1.0;" x1="904.5" x2="1099.5" y1="689.0781" y2="689.0781"/><text fill="#000000" font-family="sans-serif" font-size="14" lengthAdjust="spacingAndGlyphs" textLength="155" x="919.5" y="704.0732">...&lt;rest of the nodes&gt;</text><!--entity config.json--><rect fill="#FEFECE" filter="url(#f1ar5kp08cajq6)" height="144.7813" style="stroke: #000000; stroke-width: 1.5;" width="194" x="508" y="215"/><polygon fill="#FEFECE" points="685,220,685,234,697,234,697,226,691,220,685,220" style="stroke: #000000; stroke-width: 1.5;"/><line style="stroke: #000000; stroke-width: 1.5;" x1="691" x2="691" y1="220" y2="226"/><line style="stroke: #000000; stroke-width: 1.5;" x1="697" x2="691" y1="226" y2="226"/><text fill="#000000" font-family="sans-serif" font-size="14" lengthAdjust="spacingAndGlyphs" textLength="113" x="518" y="240.9951">SP_LAYOUT.json</text><line style="stroke: #000000; stroke-width: 1.0;" x1="509" x2="701" y1="244.2969" y2="244.2969"/><line style="stroke: #000000; stroke-width: 1.0;" x1="509" x2="701" y1="246.2969" y2="246.2969"/><text fill="#000000" font-family="sans-serif" font-size="14" lengthAdjust="spacingAndGlyphs" textLength="134" x="524" y="261.292">path to sp_binary_1</text><text fill="#000000" font-family="sans-serif" font-size="14" lengthAdjust="spacingAndGlyphs" textLength="152" x="524" y="277.5889">path to sp_manifest_1</text><line style="stroke: #000000; stroke-width: 1.0;" x1="509" x2="701" y1="284.8906" y2="284.8906"/><text fill="#000000" font-family="sans-serif" font-size="14" lengthAdjust="spacingAndGlyphs" textLength="134" x="524" y="301.8857">path to sp_binary_2</text><text fill="#000000" font-family="sans-serif" font-size="14" lengthAdjust="spacingAndGlyphs" textLength="152" x="524" y="318.1826">path to sp_manifest_2</text><line style="stroke: #000000; stroke-width: 1.0;" x1="509" x2="701" y1="325.4844" y2="325.4844"/><text fill="#000000" font-family="sans-serif" font-size="14" lengthAdjust="spacingAndGlyphs" textLength="12" x="524" y="342.4795">...</text><!--entity sp_mk_generator--><ellipse cx="605" cy="436" fill="#FEFECE" filter="url(#f1ar5kp08cajq6)" rx="12" ry="12" style="stroke: #A80036; stroke-width: 2.0;"/><polygon fill="#A80036" points="601,424,607,419,605,424,607,429,601,424" style="stroke: #A80036; stroke-width: 1.0;"/><text fill="#000000" font-family="sans-serif" font-size="14" lengthAdjust="spacingAndGlyphs" textLength="120" x="545" y="464.9951">sp_mk_generator</text><!--entity sp_gen--><rect fill="#FEFECE" filter="url(#f1ar5kp08cajq6)" height="112.4844" style="stroke: #000000; stroke-width: 1.5;" width="176" x="517" y="568.5"/><polygon fill="#FEFECE" points="676,573.5,676,587.5,688,587.5,688,579.5,682,573.5,676,573.5" style="stroke: #000000; stroke-width: 1.5;"/><line style="stroke: #000000; stroke-width: 1.5;" x1="682" x2="682" y1="573.5" y2="579.5"/><line style="stroke: #000000; stroke-width: 1.5;" x1="688" x2="682" y1="579.5" y2="579.5"/><text fill="#000000" font-family="sans-serif" font-size="14" lengthAdjust="spacingAndGlyphs" textLength="76" x="527" y="594.4951">sp_gen.mk</text><line style="stroke: #000000; stroke-width: 1.0;" x1="518" x2="692" y1="597.7969" y2="597.7969"/><line style="stroke: #000000; stroke-width: 1.0;" x1="518" x2="692" y1="599.7969" y2="599.7969"/><text fill="#000000" font-family="sans-serif" font-size="14" lengthAdjust="spacingAndGlyphs" textLength="126" x="533" y="614.792">FDT_SOURCE = ...</text><text fill="#000000" font-family="sans-serif" font-size="14" lengthAdjust="spacingAndGlyphs" textLength="134" x="533" y="631.0889">SPTOOL_ARGS = ...</text><text fill="#000000" font-family="sans-serif" font-size="14" lengthAdjust="spacingAndGlyphs" textLength="98" x="533" y="647.3857">FIP_ARGS = ...</text><text fill="#000000" font-family="sans-serif" font-size="14" lengthAdjust="spacingAndGlyphs" textLength="107" x="533" y="663.6826">CRT_ARGS = ...</text><!--entity dtc--><ellipse cx="1002" cy="797" fill="#FEFECE" filter="url(#f1ar5kp08cajq6)" rx="12" ry="12" style="stroke: #A80036; stroke-width: 2.0;"/><polygon fill="#A80036" points="998,785,1004,780,1002,785,1004,790,998,785" style="stroke: #A80036; stroke-width: 1.0;"/><text fill="#000000" font-family="sans-serif" font-size="14" lengthAdjust="spacingAndGlyphs" textLength="22" x="991" y="825.9951">dtc</text><!--entity sptool--><ellipse cx="709" cy="797" fill="#FEFECE" filter="url(#f1ar5kp08cajq6)" rx="12" ry="12" style="stroke: #A80036; stroke-width: 2.0;"/><polygon fill="#A80036" points="705,785,711,780,709,785,711,790,705,785" style="stroke: #A80036; stroke-width: 1.0;"/><text fill="#000000" font-family="sans-serif" font-size="14" lengthAdjust="spacingAndGlyphs" textLength="43" x="687.5" y="825.9951">sptool</text><!--entity tb_fw_config.dtb--><rect fill="#FEFECE" filter="url(#f1ar5kp08cajq6)" height="39.2969" style="stroke: #000000; stroke-width: 1.5;" width="142" x="931" y="925.5"/><polygon fill="#FEFECE" points="1056,930.5,1056,944.5,1068,944.5,1068,936.5,1062,930.5,1056,930.5" style="stroke: #000000; stroke-width: 1.5;"/><line style="stroke: #000000; stroke-width: 1.5;" x1="1062" x2="1062" y1="930.5" y2="936.5"/><line style="stroke: #000000; stroke-width: 1.5;" x1="1068" x2="1062" y1="936.5" y2="936.5"/><text fill="#000000" font-family="sans-serif" font-size="14" lengthAdjust="spacingAndGlyphs" textLength="112" x="941" y="951.4951">tb_fw_config.dtb</text><!--entity spkg_1--><rect fill="#FEFECE" filter="url(#f1ar5kp08cajq6)" height="112.1875" style="stroke: #000000; stroke-width: 1.5;" width="101" x="794.5" y="889"/><polygon fill="#FEFECE" points="878.5,894,878.5,908,890.5,908,890.5,900,884.5,894,878.5,894" style="stroke: #000000; stroke-width: 1.5;"/><line style="stroke: #000000; stroke-width: 1.5;" x1="884.5" x2="884.5" y1="894" y2="900"/><line style="stroke: #000000; stroke-width: 1.5;" x1="890.5" x2="884.5" y1="900" y2="900"/><text fill="#000000" font-family="sans-serif" font-size="14" lengthAdjust="spacingAndGlyphs" textLength="56" x="804.5" y="914.9951">sp1.pkg</text><line style="stroke: #000000; stroke-width: 1.0;" x1="795.5" x2="894.5" y1="918.2969" y2="918.2969"/><line style="stroke: #000000; stroke-width: 1.0;" x1="795.5" x2="894.5" y1="920.2969" y2="920.2969"/><text fill="#000000" font-family="sans-serif" font-size="14" font-style="italic" lengthAdjust="spacingAndGlyphs" textLength="49" x="810.5" y="935.292">header</text><line style="stroke: #000000; stroke-width: 1.0;" x1="795.5" x2="894.5" y1="942.5938" y2="942.5938"/><text fill="#000000" font-family="sans-serif" font-size="14" lengthAdjust="spacingAndGlyphs" textLength="59" x="810.5" y="959.5889">manifest</text><line style="stroke: #000000; stroke-width: 1.0;" x1="795.5" x2="894.5" y1="966.8906" y2="966.8906"/><text fill="#000000" font-family="sans-serif" font-size="14" lengthAdjust="spacingAndGlyphs" textLength="41" x="810.5" y="983.8857">binary</text><!--entity spkg_2--><rect fill="#FEFECE" filter="url(#f1ar5kp08cajq6)" height="112.1875" style="stroke: #000000; stroke-width: 1.5;" width="101" x="658.5" y="889"/><polygon fill="#FEFECE" points="742.5,894,742.5,908,754.5,908,754.5,900,748.5,894,742.5,894" style="stroke: #000000; stroke-width: 1.5;"/><line style="stroke: #000000; stroke-width: 1.5;" x1="748.5" x2="748.5" y1="894" y2="900"/><line style="stroke: #000000; stroke-width: 1.5;" x1="754.5" x2="748.5" y1="900" y2="900"/><text fill="#000000" font-family="sans-serif" font-size="14" lengthAdjust="spacingAndGlyphs" textLength="56" x="668.5" y="914.9951">sp2.pkg</text><line style="stroke: #000000; stroke-width: 1.0;" x1="659.5" x2="758.5" y1="918.2969" y2="918.2969"/><line style="stroke: #000000; stroke-width: 1.0;" x1="659.5" x2="758.5" y1="920.2969" y2="920.2969"/><text fill="#000000" font-family="sans-serif" font-size="14" font-style="italic" lengthAdjust="spacingAndGlyphs" textLength="49" x="674.5" y="935.292">header</text><line style="stroke: #000000; stroke-width: 1.0;" x1="659.5" x2="758.5" y1="942.5938" y2="942.5938"/><text fill="#000000" font-family="sans-serif" font-size="14" lengthAdjust="spacingAndGlyphs" textLength="59" x="674.5" y="959.5889">manifest</text><line style="stroke: #000000; stroke-width: 1.0;" x1="659.5" x2="758.5" y1="966.8906" y2="966.8906"/><text fill="#000000" font-family="sans-serif" font-size="14" lengthAdjust="spacingAndGlyphs" textLength="41" x="674.5" y="983.8857">binary</text><!--entity signed_tb_fw_config.dtb--><rect fill="#FEFECE" filter="url(#f1ar5kp08cajq6)" height="39.2969" style="stroke: #000000; stroke-width: 1.5;" width="203" x="951.5" y="1227.5"/><polygon fill="#FEFECE" points="1137.5,1232.5,1137.5,1246.5,1149.5,1246.5,1149.5,1238.5,1143.5,1232.5,1137.5,1232.5" style="stroke: #000000; stroke-width: 1.5;"/><line style="stroke: #000000; stroke-width: 1.5;" x1="1143.5" x2="1143.5" y1="1232.5" y2="1238.5"/><line style="stroke: #000000; stroke-width: 1.5;" x1="1149.5" x2="1143.5" y1="1238.5" y2="1238.5"/><text fill="#000000" font-family="sans-serif" font-size="14" lengthAdjust="spacingAndGlyphs" textLength="173" x="961.5" y="1253.4951">tb_fw_config.dtb (signed)</text><!--entity signed_spkg_1--><rect fill="#FEFECE" filter="url(#f1ar5kp08cajq6)" height="136.4844" style="stroke: #000000; stroke-width: 1.5;" width="147" x="587.5" y="1179"/><polygon fill="#FEFECE" points="717.5,1184,717.5,1198,729.5,1198,729.5,1190,723.5,1184,717.5,1184" style="stroke: #000000; stroke-width: 1.5;"/><line style="stroke: #000000; stroke-width: 1.5;" x1="723.5" x2="723.5" y1="1184" y2="1190"/><line style="stroke: #000000; stroke-width: 1.5;" x1="729.5" x2="723.5" y1="1190" y2="1190"/><text fill="#000000" font-family="sans-serif" font-size="14" lengthAdjust="spacingAndGlyphs" textLength="117" x="597.5" y="1204.9951">sp1.pkg (signed)</text><line style="stroke: #000000; stroke-width: 1.0;" x1="588.5" x2="733.5" y1="1208.2969" y2="1208.2969"/><line style="stroke: #000000; stroke-width: 1.0;" x1="588.5" x2="733.5" y1="1210.2969" y2="1210.2969"/><text fill="#000000" font-family="sans-serif" font-size="14" font-style="italic" lengthAdjust="spacingAndGlyphs" textLength="49" x="603.5" y="1225.292">header</text><line style="stroke: #000000; stroke-width: 1.0;" x1="588.5" x2="733.5" y1="1232.5938" y2="1232.5938"/><text fill="#000000" font-family="sans-serif" font-size="14" lengthAdjust="spacingAndGlyphs" textLength="59" x="603.5" y="1249.5889">manifest</text><line style="stroke: #000000; stroke-width: 1.0;" x1="588.5" x2="733.5" y1="1256.8906" y2="1256.8906"/><text fill="#000000" font-family="sans-serif" font-size="14" lengthAdjust="spacingAndGlyphs" textLength="41" x="603.5" y="1273.8857">binary</text><line style="stroke: #000000; stroke-width: 1.0;" x1="588.5" x2="733.5" y1="1281.1875" y2="1281.1875"/><text fill="#000000" font-family="sans-serif" font-size="14" font-style="italic" lengthAdjust="spacingAndGlyphs" textLength="64" x="603.5" y="1298.1826">signature</text><!--entity signed_spkg_2--><rect fill="#FEFECE" filter="url(#f1ar5kp08cajq6)" height="136.4844" style="stroke: #000000; stroke-width: 1.5;" width="147" x="769.5" y="1179"/><polygon fill="#FEFECE" points="899.5,1184,899.5,1198,911.5,1198,911.5,1190,905.5,1184,899.5,1184" style="stroke: #000000; stroke-width: 1.5;"/><line style="stroke: #000000; stroke-width: 1.5;" x1="905.5" x2="905.5" y1="1184" y2="1190"/><line style="stroke: #000000; stroke-width: 1.5;" x1="911.5" x2="905.5" y1="1190" y2="1190"/><text fill="#000000" font-family="sans-serif" font-size="14" lengthAdjust="spacingAndGlyphs" textLength="117" x="779.5" y="1204.9951">sp2.pkg (signed)</text><line style="stroke: #000000; stroke-width: 1.0;" x1="770.5" x2="915.5" y1="1208.2969" y2="1208.2969"/><line style="stroke: #000000; stroke-width: 1.0;" x1="770.5" x2="915.5" y1="1210.2969" y2="1210.2969"/><text fill="#000000" font-family="sans-serif" font-size="14" font-style="italic" lengthAdjust="spacingAndGlyphs" textLength="49" x="785.5" y="1225.292">header</text><line style="stroke: #000000; stroke-width: 1.0;" x1="770.5" x2="915.5" y1="1232.5938" y2="1232.5938"/><text fill="#000000" font-family="sans-serif" font-size="14" lengthAdjust="spacingAndGlyphs" textLength="59" x="785.5" y="1249.5889">manifest</text><line style="stroke: #000000; stroke-width: 1.0;" x1="770.5" x2="915.5" y1="1256.8906" y2="1256.8906"/><text fill="#000000" font-family="sans-serif" font-size="14" lengthAdjust="spacingAndGlyphs" textLength="41" x="785.5" y="1273.8857">binary</text><line style="stroke: #000000; stroke-width: 1.0;" x1="770.5" x2="915.5" y1="1281.1875" y2="1281.1875"/><text fill="#000000" font-family="sans-serif" font-size="14" font-style="italic" lengthAdjust="spacingAndGlyphs" textLength="64" x="785.5" y="1298.1826">signature</text><!--entity crttool--><ellipse cx="869" cy="91" fill="#FEFECE" filter="url(#f1ar5kp08cajq6)" rx="12" ry="12" style="stroke: #A80036; stroke-width: 2.0;"/><polygon fill="#A80036" points="865,79,871,74,869,79,871,84,865,79" style="stroke: #A80036; stroke-width: 1.0;"/><text fill="#000000" font-family="sans-serif" font-size="14" lengthAdjust="spacingAndGlyphs" textLength="44" x="847" y="119.9951">crttool</text><!--entity fiptool--><ellipse cx="752" cy="1391" fill="#FEFECE" filter="url(#f1ar5kp08cajq6)" rx="12" ry="12" style="stroke: #A80036; stroke-width: 2.0;"/><polygon fill="#A80036" points="748,1379,754,1374,752,1379,754,1384,748,1379" style="stroke: #A80036; stroke-width: 1.0;"/><text fill="#000000" font-family="sans-serif" font-size="14" lengthAdjust="spacingAndGlyphs" textLength="42" x="731" y="1419.9951">fiptool</text><!--entity fip--><rect fill="#FEFECE" filter="url(#f1ar5kp08cajq6)" height="160.7813" style="stroke: #000000; stroke-width: 1.5;" width="290" x="607" y="1483"/><polygon fill="#FEFECE" points="880,1488,880,1502,892,1502,892,1494,886,1488,880,1488" style="stroke: #000000; stroke-width: 1.5;"/><line style="stroke: #000000; stroke-width: 1.5;" x1="886" x2="886" y1="1488" y2="1494"/><line style="stroke: #000000; stroke-width: 1.5;" x1="892" x2="886" y1="1494" y2="1494"/><text fill="#000000" font-family="sans-serif" font-size="14" lengthAdjust="spacingAndGlyphs" textLength="41" x="617" y="1508.9951">fip.bin</text><line style="stroke: #000000; stroke-width: 1.0;" x1="608" x2="896" y1="1512.2969" y2="1512.2969"/><line style="stroke: #000000; stroke-width: 1.0;" x1="608" x2="896" y1="1514.2969" y2="1514.2969"/><text fill="#000000" font-family="sans-serif" font-size="14" lengthAdjust="spacingAndGlyphs" textLength="173" x="623" y="1529.292">tb_fw_config.dtb (signed)</text><line style="stroke: #000000; stroke-width: 1.0;" x1="608" x2="896" y1="1536.5938" y2="1536.5938"/><text fill="#000000" font-family="sans-serif" font-size="14" lengthAdjust="spacingAndGlyphs" textLength="12" x="623" y="1553.5889">...</text><line style="stroke: #000000; stroke-width: 1.0;" x1="608" x2="896" y1="1560.8906" y2="1560.8906"/><text fill="#000000" font-family="sans-serif" font-size="14" lengthAdjust="spacingAndGlyphs" textLength="213" x="623" y="1577.8857">sp1.pkg  (signed &amp; SiP owned)</text><line style="stroke: #000000; stroke-width: 1.0;" x1="608" x2="896" y1="1585.1875" y2="1585.1875"/><text fill="#000000" font-family="sans-serif" font-size="14" lengthAdjust="spacingAndGlyphs" textLength="248" x="623" y="1602.1826">sp2.pkg  (signed &amp; Platform owned)</text><line style="stroke: #000000; stroke-width: 1.0;" x1="608" x2="896" y1="1609.4844" y2="1609.4844"/><text fill="#000000" font-family="sans-serif" font-size="14" lengthAdjust="spacingAndGlyphs" textLength="12" x="623" y="1626.4795">...</text><!--entity cert_create--><ellipse cx="843" cy="1090" fill="#FEFECE" filter="url(#f1ar5kp08cajq6)" rx="8" ry="8" style="stroke: #A80036; stroke-width: 2.0;"/><text fill="#000000" font-family="sans-serif" font-size="14" lengthAdjust="spacingAndGlyphs" textLength="78" x="804" y="1119.9951">cert_create</text><!--link SP_vendor_1 to config.json--><path d="M406.0522,141.4567 C406.0889,141.5612 406.1257,141.6657 406.1626,141.7701 C406.4584,142.6057 406.7647,143.4401 407.082,144.2718 C409.6206,150.9255 412.8624,157.4106 417,163 C440.5242,194.779 474.7494,220.8614 507.5703,240.7956 " fill="none" id="SP_vendor_1-config.json" style="stroke: #A80036; stroke-width: 1.0; stroke-dasharray: 7.0,7.0;"/><polygon fill="#A80036" points="406.0522,141.4567,405.2555,151.2733,407.7067,146.1751,412.8049,148.6262,406.0522,141.4567" style="stroke: #A80036; stroke-width: 1.0;"/><!--link SP_vendor_2 to config.json--><path d="M798.8494,155.209 C798.6422,155.5987 798.4316,155.9861 798.2178,156.3711 C797.7902,157.1411 797.3493,157.9013 796.8947,158.6505 C795.9855,160.1487 795.0217,161.6023 794,163 C770.3484,195.3546 735.5399,221.6913 702.22,241.6693 " fill="none" id="SP_vendor_2-config.json" style="stroke: #A80036; stroke-width: 1.0; stroke-dasharray: 7.0,7.0;"/><polygon fill="#A80036" points="798.8494,155.209,791.0917,161.2768,796.5015,159.6235,798.1548,165.0334,798.8494,155.209" style="stroke: #A80036; stroke-width: 1.0;"/><!--link config.json to sp_mk_generator--><path d="M605,360.2521 C605,379.4718 605,399.136 605,414.576 " fill="none" id="config.json-sp_mk_generator" style="stroke: #A80036; stroke-width: 1.0;"/><polygon fill="#A80036" points="605,419.6435,609,410.6435,605,414.6435,601,410.6435,605,419.6435" style="stroke: #A80036; stroke-width: 1.0;"/><!--link sp_mk_generator to sp_gen--><path d="M605,468.343 C605,492.5485 605,530.6617 605,563.1744 " fill="none" id="sp_mk_generator-sp_gen" style="stroke: #A80036; stroke-width: 1.0;"/><polygon fill="#A80036" points="605,568.3415,609,559.3415,605,563.3415,601,559.3415,605,568.3415" style="stroke: #A80036; stroke-width: 1.0;"/><!--link sp_gen to fiptool--><path d="M584.7493,680.6928 C563.7636,744.0407 534,850.5369 534,945 C534,945 534,945 534,1090 C534,1191.2719 508.8308,1234.2886 570,1315 C608.5231,1365.8304 685.1669,1386.933 725.6061,1394.8208 " fill="none" id="sp_gen-fiptool" style="stroke: #A80036; stroke-width: 1.0;"/><polygon fill="#A80036" points="730.8273,1395.8048,722.7239,1390.207,725.9138,1394.8787,721.2421,1398.0686,730.8273,1395.8048" style="stroke: #A80036; stroke-width: 1.0;"/><!--link sp_gen to cert_create--><path d="M594.0814,680.6679 C581.9704,760.0183 572.2726,905.854 641,1001 C687.4117,1065.2523 790.6825,1083.7766 828.6422,1088.5223 " fill="none" id="sp_gen-cert_create" style="stroke: #A80036; stroke-width: 1.0;"/><polygon fill="#A80036" points="833.7544,1089.1263,825.2861,1084.0976,828.789,1088.5394,824.3471,1092.0423,833.7544,1089.1263" style="stroke: #A80036; stroke-width: 1.0;"/><!--link sp_gen to sptool--><path d="M637.3362,680.6219 C655.5236,712.1876 677.4747,750.2854 692.2505,775.9299 " fill="none" id="sp_gen-sptool" style="stroke: #A80036; stroke-width: 1.0;"/><polygon fill="#A80036" points="694.9234,780.569,693.8963,770.7738,692.4273,776.2366,686.9645,774.7676,694.9234,780.569" style="stroke: #A80036; stroke-width: 1.0;"/><!--link sptool to spkg_1--><path d="M730.5496,827.1834 C746.7635,843.8742 769.7264,867.5125 790.8329,889.2397 " fill="none" id="sptool-spkg_1" style="stroke: #A80036; stroke-width: 1.0;"/><polygon fill="#A80036" points="794.4757,892.9896,791.0737,883.747,790.9918,889.4032,785.3355,889.3213,794.4757,892.9896" style="stroke: #A80036; stroke-width: 1.0;"/><!--link sptool to spkg_2--><path d="M709,829.0669 C709,844.0737 709,864.1233 709,883.3252 " fill="none" id="sptool-spkg_2" style="stroke: #A80036; stroke-width: 1.0;"/><polygon fill="#A80036" points="709,888.7138,713,879.7138,709,883.7138,705,879.7138,709,888.7138" style="stroke: #A80036; stroke-width: 1.0;"/><!--link spkg_1 to cert_create--><path d="M844.2267,1001.0608 C843.8554,1027.9822 843.4401,1058.0959 843.2004,1075.4699 " fill="none" id="spkg_1-cert_create" style="stroke: #A80036; stroke-width: 1.0;"/><polygon fill="#A80036" points="843.1262,1080.8506,847.25,1071.9067,843.1952,1075.8511,839.2508,1071.7963,843.1262,1080.8506" style="stroke: #A80036; stroke-width: 1.0;"/><!--link spkg_2 to cert_create--><path d="M759.6597,999.8183 C785.4861,1027.7648 814.7624,1059.4444 830.8292,1076.8301 " fill="none" id="spkg_2-cert_create" style="stroke: #A80036; stroke-width: 1.0;"/><polygon fill="#A80036" points="834.6193,1080.9313,831.4486,1071.6068,831.2258,1077.2592,825.5733,1077.0364,834.6193,1080.9313" style="stroke: #A80036; stroke-width: 1.0;"/><!--link cert_create to signed_spkg_1--><path d="M833.7244,1098.0015 C816.042,1113.255 775.9587,1147.8323 738.854,1179.8402 " fill="none" id="cert_create-signed_spkg_1" style="stroke: #A80036; stroke-width: 1.0;"/><polygon fill="#A80036" points="734.8111,1183.3278,744.2387,1180.478,738.5971,1180.0619,739.0132,1174.4204,734.8111,1183.3278" style="stroke: #A80036; stroke-width: 1.0;"/><!--link cert_create to signed_spkg_2--><path d="M843,1099.3509 C843,1114.203 843,1144.5123 843,1173.8265 " fill="none" id="cert_create-signed_spkg_2" style="stroke: #A80036; stroke-width: 1.0;"/><polygon fill="#A80036" points="843,1178.9009,847,1169.9009,843,1173.9009,839,1169.9009,843,1178.9009" style="stroke: #A80036; stroke-width: 1.0;"/><!--link tb_fw_config.dts to dtc--><path d="M1002,721.0911 C1002,740.9483 1002,760.3941 1002,775.5578 " fill="none" id="tb_fw_config.dts-dtc" style="stroke: #A80036; stroke-width: 1.0;"/><polygon fill="#A80036" points="1002,780.9435,1006,771.9435,1002,775.9435,998,771.9435,1002,780.9435" style="stroke: #A80036; stroke-width: 1.0;"/><!--link dtc to tb_fw_config.dtb--><path d="M1002,829.0669 C1002,854.4667 1002,894.3127 1002,920.0438 " fill="none" id="dtc-tb_fw_config.dtb" style="stroke: #A80036; stroke-width: 1.0;"/><polygon fill="#A80036" points="1002,925.31,1006,916.31,1002,920.31,998,916.31,1002,925.31" style="stroke: #A80036; stroke-width: 1.0;"/><!--link tb_fw_config.dtb to cert_create--><path d="M980.5566,964.5553 C947.1084,995.0584 883.5129,1053.0543 856.1057,1078.0483 " fill="none" id="tb_fw_config.dtb-cert_create" style="stroke: #A80036; stroke-width: 1.0;"/><polygon fill="#A80036" points="852.3324,1081.4893,861.6778,1078.3806,856.0269,1078.1202,856.2872,1072.4694,852.3324,1081.4893" style="stroke: #A80036; stroke-width: 1.0;"/><!--link cert_create to signed_tb_fw_config.dtb--><path d="M852.0234,1096.7461 C881.2105,1118.5669 973.9786,1187.9221 1022.6019,1224.2738 " fill="none" id="cert_create-signed_tb_fw_config.dtb" style="stroke: #A80036; stroke-width: 1.0;"/><polygon fill="#A80036" points="1026.8808,1227.4728,1022.0676,1218.8802,1022.8762,1224.4789,1017.2774,1225.2875,1026.8808,1227.4728" style="stroke: #A80036; stroke-width: 1.0;"/><!--link signed_tb_fw_config.dtb to fiptool--><path d="M1020.5888,1266.5349 C996.8953,1280.565 963.8245,1299.6328 934,1315 C879.2289,1343.2211 813.164,1372.5851 777.6249,1388.0126 " fill="none" id="signed_tb_fw_config.dtb-fiptool" style="stroke: #A80036; stroke-width: 1.0;"/><polygon fill="#A80036" points="773.0264,1390.0049,782.8748,1390.0972,777.6143,1388.0171,779.6943,1382.7565,773.0264,1390.0049" style="stroke: #A80036; stroke-width: 1.0;"/><!--link signed_spkg_1 to fiptool--><path d="M701.9744,1315.4408 C713.5176,1334.7218 725.4532,1354.6582 734.7698,1370.2199 " fill="none" id="signed_spkg_1-fiptool" style="stroke: #A80036; stroke-width: 1.0;"/><polygon fill="#A80036" points="737.5737,1374.9033,736.3824,1365.1268,735.0053,1370.6134,729.5186,1369.2363,737.5737,1374.9033" style="stroke: #A80036; stroke-width: 1.0;"/><!--link signed_spkg_2 to fiptool--><path d="M802.0256,1315.4408 C790.4824,1334.7218 778.5468,1354.6582 769.2302,1370.2199 " fill="none" id="signed_spkg_2-fiptool" style="stroke: #A80036; stroke-width: 1.0;"/><polygon fill="#A80036" points="766.4263,1374.9033,774.4814,1369.2363,768.9947,1370.6134,767.6176,1365.1268,766.4263,1374.9033" style="stroke: #A80036; stroke-width: 1.0;"/><!--link fiptool to fip--><path d="M752,1423.2725 C752,1437.9379 752,1457.6067 752,1477.5654 " fill="none" id="fiptool-fip" style="stroke: #A80036; stroke-width: 1.0;"/><polygon fill="#A80036" points="752,1482.643,756,1473.643,752,1477.643,748,1473.643,752,1482.643" style="stroke: #A80036; stroke-width: 1.0;"/><!--
@startuml

folder SP_vendor_1 {
 artifact sp_binary_1
 artifact sp_manifest_1 [
 sp_manifest_1
 ===
 UUID = xxx
 load_address = 0xaaa
 owner = "Sip"
 ...
 ]
}

folder SP_vendor_2 {
 artifact sp_binary_2
 artifact sp_manifest_2 [
 sp_manifest_2
 ===
 UUID = yyy
 load_address = 0xbbb
 owner = "Plat"
 ]
}

artifact tb_fw_config.dts [
 tb_fw_config.dts
 - - - -
 secure-partitions
 ===
 spkg_1 UUID
 spkg_1 load_address
 - - -
 spkg_2 UUID
 spkg_2 load_address
 - - -
 ...
 ===
 ...<rest of the nodes>
]

artifact config.json [
 SP_LAYOUT.json
 ===
 path to sp_binary_1
 path to sp_manifest_1
 - - -
 path to sp_binary_2
 path to sp_manifest_2
 - - -
 ...
]

control sp_mk_generator

artifact sp_gen [
 sp_gen.mk
 ===
 FDT_SOURCE = ...
 SPTOOL_ARGS = ...
 FIP_ARGS = ...
 CRT_ARGS = ...
]

control dtc
control sptool

artifact tb_fw_config.dtb

artifact spkg_1 [
 sp1.pkg
 ===
 <i>header</i>
 - - -
 manifest
 - - -
 binary
]

artifact spkg_2 [
 sp2.pkg
 ===
 <i>header</i>
 - - -
 manifest
 - - -
 binary
]

artifact signed_tb_fw_config.dtb [
 tb_fw_config.dtb (signed)
]

artifact signed_spkg_1 [
 sp1.pkg (signed)
 ===
 <i>header</i>
 - - -
 manifest
 - - -
 binary
 - - -
 <i>signature</I>
]

artifact signed_spkg_2 [
 sp2.pkg (signed)
 ===
 <i>header</i>
 - - -
 manifest
 - - -
 binary
 - - -
 <i>signature</I>
]

control crttool
control fiptool

artifact fip [
 fip.bin
 ===
 tb_fw_config.dtb (signed)
 - - -
 ...
 - - -
 sp1.pkg  (signed & SiP owned)
 - - -
 sp2.pkg  (signed & Platform owned)
 - - -
 ...
]

config.json .up.> SP_vendor_1
config.json .up.> SP_vendor_2
config.json - -> sp_mk_generator
sp_mk_generator - -> sp_gen
sp_gen - -> fiptool
sp_gen - -> cert_create
sp_gen - -> sptool

sptool - -> spkg_1
sptool - -> spkg_2

spkg_1 - -> cert_create
spkg_2 - -> cert_create
cert_create - -> signed_spkg_1
cert_create - -> signed_spkg_2

tb_fw_config.dts - -> dtc
dtc - -> tb_fw_config.dtb
tb_fw_config.dtb - -> cert_create
cert_create - -> signed_tb_fw_config.dtb

signed_tb_fw_config.dtb - -> fiptool
signed_spkg_1 -down-> fiptool
signed_spkg_2 -down-> fiptool
fiptool -down-> fip

@enduml

PlantUML version 1.2017.15(Mon Jul 03 17:45:34 BST 2017)
(GPL source distribution)
Java Runtime: OpenJDK Runtime Environment
JVM: OpenJDK 64-Bit Server VM
Java Version: 11.0.9.1+1-Ubuntu-0ubuntu1.18.04
Operating System: Linux
OS Version: 4.15.0-124-generic
Default Encoding: UTF-8
Language: en
Country: GB
--></g></svg>