<?xml version="1.0" encoding="UTF-8" standalone="no"?><svg xmlns="http://www.w3.org/2000/svg" xmlns:xlink="http://www.w3.org/1999/xlink" contentScriptType="application/ecmascript" contentStyleType="text/css" height="1270px" preserveAspectRatio="none" style="width:662px;height:1270px;background:#ADD8E6;" version="1.1" viewBox="0 0 662 1270" width="662px" zoomAndPan="magnify"><defs><filter height="300%" id="f12c09fy05g3td" width="300%" x="-1" y="-1"><feGaussianBlur result="blurOut" stdDeviation="2.0"/><feColorMatrix in="blurOut" result="blurOut2" type="matrix" values="0 0 0 0 0 0 0 0 0 0 0 0 0 0 0 0 0 0 .4 0"/><feOffset dx="4.0" dy="4.0" in="blurOut2" result="blurOut3"/><feBlend in="SourceGraphic" in2="blurOut3" mode="normal"/></filter></defs><g><text fill="#000000" font-family="sans-serif" font-size="18" lengthAdjust="spacingAndGlyphs" textLength="210" x="225" y="26.708">TFACMF lookup process</text><text fill="#000000" font-family="sans-serif" font-size="18" lengthAdjust="spacingAndGlyphs" textLength="0" x="333" y="47.6611"/><text fill="#000000" font-family="sans-serif" font-size="18" lengthAdjust="spacingAndGlyphs" textLength="0" x="333" y="68.6143"/><rect fill="#FEFECE" filter="url(#f12c09fy05g3td)" height="33.9688" style="stroke: #A80036; stroke-width: 1.5;" width="160" x="90" y="121.2617"/><text fill="#000000" font-family="sans-serif" font-size="12" lengthAdjust="spacingAndGlyphs" textLength="52" x="100" y="142.4004">Check &lt;</text><text fill="#000000" font-family="sans-serif" font-size="12" font-style="italic" lengthAdjust="spacingAndGlyphs" textLength="74" x="152" y="142.4004">TFACMF_DIR</text><text fill="#000000" font-family="sans-serif" font-size="12" lengthAdjust="spacingAndGlyphs" textLength="10" x="226" y="142.4004">&gt;</text><rect fill="#D9FFE9" filter="url(#f12c09fy05g3td)" height="33.9688" rx="12.5" ry="12.5" style="stroke: #A80036; stroke-width: 1.5;" width="71" x="134.5" y="272.0352"/><text fill="#000000" font-family="sans-serif" font-size="12" lengthAdjust="spacingAndGlyphs" textLength="51" x="144.5" y="293.1738">success</text><ellipse cx="170" cy="343.5195" fill="none" filter="url(#f12c09fy05g3td)" rx="10" ry="10" style="stroke: #000000; stroke-width: 1.0;"/><ellipse cx="170.5" cy="344.0195" fill="#000000" filter="url(#f12c09fy05g3td)" rx="6" ry="6" style="stroke: none; stroke-width: 1.0;"/><polygon fill="#FEFECE" filter="url(#f12c09fy05g3td)" points="98,223.6328,242,223.6328,254,235.6328,242,247.6328,98,247.6328,86,235.6328,98,223.6328" style="stroke: #A80036; stroke-width: 1.5;"/><text fill="#000000" font-family="sans-serif" font-size="11" lengthAdjust="spacingAndGlyphs" textLength="20" x="174" y="257.8433">yes</text><text fill="#000000" font-family="sans-serif" font-size="11" lengthAdjust="spacingAndGlyphs" textLength="144" x="98" y="239.4409">compatible version found</text><polygon fill="#FEFECE" filter="url(#f12c09fy05g3td)" points="129,175.2305,211,175.2305,223,187.2305,211,199.2305,129,199.2305,117,187.2305,129,175.2305" style="stroke: #A80036; stroke-width: 1.5;"/><text fill="#000000" font-family="sans-serif" font-size="11" lengthAdjust="spacingAndGlyphs" textLength="20" x="174" y="209.4409">yes</text><text fill="#000000" font-family="sans-serif" font-size="11" lengthAdjust="spacingAndGlyphs" textLength="82" x="129" y="191.0386">location exists</text><polygon fill="#FEFECE" filter="url(#f12c09fy05g3td)" points="170,395.5195,182,407.5195,170,419.5195,158,407.5195,170,395.5195" style="stroke: #A80036; stroke-width: 1.5;"/><polygon fill="#FEFECE" filter="url(#f12c09fy05g3td)" points="114.5,72.8594,225.5,72.8594,237.5,84.8594,225.5,96.8594,114.5,96.8594,102.5,84.8594,114.5,72.8594" style="stroke: #A80036; stroke-width: 1.5;"/><text fill="#000000" font-family="sans-serif" font-size="11" lengthAdjust="spacingAndGlyphs" textLength="20" x="174" y="107.0698">yes</text><text fill="#000000" font-family="sans-serif" font-size="11" lengthAdjust="spacingAndGlyphs" textLength="10" x="114.5" y="88.6675">is</text><text fill="#000000" font-family="sans-serif" font-size="11" font-style="italic" lengthAdjust="spacingAndGlyphs" textLength="69" x="128.5" y="88.6675">TFACMF_DIR</text><text fill="#000000" font-family="sans-serif" font-size="11" lengthAdjust="spacingAndGlyphs" textLength="24" x="201.5" y="88.6675">set?</text><polygon fill="#FEFECE" filter="url(#f12c09fy05g3td)" points="170,439.5195,182,451.5195,170,463.5195,158,451.5195,170,439.5195" style="stroke: #A80036; stroke-width: 1.5;"/><rect fill="#FEFECE" filter="url(#f12c09fy05g3td)" height="33.9688" style="stroke: #A80036; stroke-width: 1.5;" width="320" x="10" y="483.5195"/><text fill="#000000" font-family="sans-serif" font-size="12" lengthAdjust="spacingAndGlyphs" textLength="52" x="20" y="504.6582">Check &lt;</text><text fill="#000000" font-family="sans-serif" font-size="12" font-style="italic" lengthAdjust="spacingAndGlyphs" textLength="234" x="72" y="504.6582">CMAKE_BINARY_DIR/cmake-framework</text><text fill="#000000" font-family="sans-serif" font-size="12" lengthAdjust="spacingAndGlyphs" textLength="10" x="306" y="504.6582">&gt;</text><rect fill="#D9FFE9" filter="url(#f12c09fy05g3td)" height="33.9688" rx="12.5" ry="12.5" style="stroke: #A80036; stroke-width: 1.5;" width="71" x="134.5" y="634.293"/><text fill="#000000" font-family="sans-serif" font-size="12" lengthAdjust="spacingAndGlyphs" textLength="51" x="144.5" y="655.4316">success</text><ellipse cx="170" cy="705.7773" fill="none" filter="url(#f12c09fy05g3td)" rx="10" ry="10" style="stroke: #000000; stroke-width: 1.0;"/><ellipse cx="170.5" cy="706.2773" fill="#000000" filter="url(#f12c09fy05g3td)" rx="6" ry="6" style="stroke: none; stroke-width: 1.0;"/><polygon fill="#FEFECE" filter="url(#f12c09fy05g3td)" points="98,585.8906,242,585.8906,254,597.8906,242,609.8906,98,609.8906,86,597.8906,98,585.8906" style="stroke: #A80036; stroke-width: 1.5;"/><text fill="#000000" font-family="sans-serif" font-size="11" lengthAdjust="spacingAndGlyphs" textLength="20" x="174" y="620.1011">yes</text><text fill="#000000" font-family="sans-serif" font-size="11" lengthAdjust="spacingAndGlyphs" textLength="144" x="98" y="601.6987">compatible version found</text><polygon fill="#FEFECE" filter="url(#f12c09fy05g3td)" points="129,537.4883,211,537.4883,223,549.4883,211,561.4883,129,561.4883,117,549.4883,129,537.4883" style="stroke: #A80036; stroke-width: 1.5;"/><text fill="#000000" font-family="sans-serif" font-size="11" lengthAdjust="spacingAndGlyphs" textLength="20" x="174" y="571.6987">yes</text><text fill="#000000" font-family="sans-serif" font-size="11" lengthAdjust="spacingAndGlyphs" textLength="82" x="129" y="553.2964">location exists</text><polygon fill="#FEFECE" filter="url(#f12c09fy05g3td)" points="170,757.7773,182,769.7773,170,781.7773,158,769.7773,170,757.7773" style="stroke: #A80036; stroke-width: 1.5;"/><polygon fill="#F4E8D6" filter="url(#f12c09fy05g3td)" points="303,791.7773,303,847.1758,640,847.1758,640,801.7773,630,791.7773,303,791.7773" style="stroke: #A80036; stroke-width: 1.0;"/><polygon fill="#F4E8D6" points="303,791.7773,303,815.4766,283,819.4766,303,823.4766,303,847.1758,640,847.1758,640,801.7773,630,791.7773,303,791.7773" style="stroke: #A80036; stroke-width: 1.0;"/><line style="stroke: #A80036; stroke-width: 1.0;" x1="630" x2="630" y1="791.7773" y2="801.7773"/><line style="stroke: #A80036; stroke-width: 1.0;" x1="640" x2="630" y1="801.7773" y2="801.7773"/><text fill="#000000" font-family="sans-serif" font-size="13" lengthAdjust="spacingAndGlyphs" textLength="49" x="309" y="808.8442">clone &lt;</text><text fill="#000000" font-family="sans-serif" font-size="13" font-style="italic" lengthAdjust="spacingAndGlyphs" textLength="113" x="358" y="808.8442">TFACMF_GIT_URL</text><text fill="#000000" font-family="sans-serif" font-size="13" lengthAdjust="spacingAndGlyphs" textLength="11" x="471" y="808.8442">&gt;</text><text fill="#000000" font-family="sans-serif" font-size="13" lengthAdjust="spacingAndGlyphs" textLength="52" x="309" y="823.9771">.     to &lt;</text><text fill="#000000" font-family="sans-serif" font-size="13" font-style="italic" lengthAdjust="spacingAndGlyphs" textLength="253" x="361" y="823.9771">CMAKE_BINARY_DIR/cmake-framework</text><text fill="#000000" font-family="sans-serif" font-size="13" lengthAdjust="spacingAndGlyphs" textLength="11" x="614" y="823.9771">&gt;</text><text fill="#000000" font-family="sans-serif" font-size="13" lengthAdjust="spacingAndGlyphs" textLength="138" x="309" y="839.1099">.     check out tag "v&lt;</text><text fill="#000000" font-family="sans-serif" font-size="13" font-style="italic" lengthAdjust="spacingAndGlyphs" textLength="116" x="447" y="839.1099">TFACMF_VERSION</text><text fill="#000000" font-family="sans-serif" font-size="13" lengthAdjust="spacingAndGlyphs" textLength="16" x="563" y="839.1099">&gt;"</text><rect fill="#FEFECE" filter="url(#f12c09fy05g3td)" height="33.9688" rx="12.5" ry="12.5" style="stroke: #A80036; stroke-width: 1.5;" width="226" x="57" y="802.4922"/><text fill="#000000" font-family="sans-serif" font-size="12" lengthAdjust="spacingAndGlyphs" textLength="206" x="67" y="823.6309">Use FetchContent to get TFACMF</text><rect fill="#D9FFE9" filter="url(#f12c09fy05g3td)" height="33.9688" rx="12.5" ry="12.5" style="stroke: #A80036; stroke-width: 1.5;" width="71" x="134.5" y="963.9805"/><text fill="#000000" font-family="sans-serif" font-size="12" lengthAdjust="spacingAndGlyphs" textLength="51" x="144.5" y="985.1191">success</text><ellipse cx="170" cy="1035.4648" fill="none" filter="url(#f12c09fy05g3td)" rx="10" ry="10" style="stroke: #000000; stroke-width: 1.0;"/><ellipse cx="170.5" cy="1035.9648" fill="#000000" filter="url(#f12c09fy05g3td)" rx="6" ry="6" style="stroke: none; stroke-width: 1.0;"/><polygon fill="#FEFECE" filter="url(#f12c09fy05g3td)" points="98,915.5781,242,915.5781,254,927.5781,242,939.5781,98,939.5781,86,927.5781,98,915.5781" style="stroke: #A80036; stroke-width: 1.5;"/><text fill="#000000" font-family="sans-serif" font-size="11" lengthAdjust="spacingAndGlyphs" textLength="20" x="174" y="949.7886">yes</text><text fill="#000000" font-family="sans-serif" font-size="11" lengthAdjust="spacingAndGlyphs" textLength="144" x="98" y="931.3862">compatible version found</text><polygon fill="#FEFECE" filter="url(#f12c09fy05g3td)" points="146.5,867.1758,193.5,867.1758,205.5,879.1758,193.5,891.1758,146.5,891.1758,134.5,879.1758,146.5,867.1758" style="stroke: #A80036; stroke-width: 1.5;"/><text fill="#000000" font-family="sans-serif" font-size="11" lengthAdjust="spacingAndGlyphs" textLength="20" x="174" y="901.3862">yes</text><text fill="#000000" font-family="sans-serif" font-size="11" lengthAdjust="spacingAndGlyphs" textLength="47" x="146.5" y="882.9839">success</text><polygon fill="#FEFECE" filter="url(#f12c09fy05g3td)" points="170,1087.4648,182,1099.4648,170,1111.4648,158,1099.4648,170,1087.4648" style="stroke: #A80036; stroke-width: 1.5;"/><polygon fill="#FEFECE" filter="url(#f12c09fy05g3td)" points="121,1131.4648,219,1131.4648,229,1148.4492,219,1165.4336,121,1165.4336" style="stroke: #A80036; stroke-width: 1.5;"/><text fill="#000000" font-family="sans-serif" font-size="12" lengthAdjust="spacingAndGlyphs" textLength="74" x="131" y="1152.6035">report error</text><rect fill="#FFCCCB" filter="url(#f12c09fy05g3td)" height="33.9688" rx="12.5" ry="12.5" style="stroke: #A80036; stroke-width: 1.5;" width="70" x="135" y="1185.4336"/><text fill="#000000" font-family="sans-serif" font-size="12" lengthAdjust="spacingAndGlyphs" textLength="50" x="145" y="1206.5723">⚠failure</text><ellipse cx="170" cy="1249.4023" fill="none" filter="url(#f12c09fy05g3td)" rx="10" ry="10" style="stroke: #000000; stroke-width: 1.0;"/><ellipse cx="170.5" cy="1249.9023" fill="#000000" filter="url(#f12c09fy05g3td)" rx="6" ry="6" style="stroke: none; stroke-width: 1.0;"/><line style="stroke: #A80036; stroke-width: 1.5;" x1="170" x2="170" y1="306.0039" y2="333.5195"/><polygon fill="#A80036" points="166,323.5195,170,333.5195,174,323.5195,170,327.5195" style="stroke: #A80036; stroke-width: 1.0;"/><line style="stroke: #A80036; stroke-width: 1.5;" x1="170" x2="170" y1="247.6328" y2="272.0352"/><polygon fill="#A80036" points="166,262.0352,170,272.0352,174,262.0352,170,266.0352" style="stroke: #A80036; stroke-width: 1.0;"/><line style="stroke: #A80036; stroke-width: 1.5;" x1="254" x2="266" y1="235.6328" y2="235.6328"/><polygon fill="#A80036" points="262,303.5195,266,313.5195,270,303.5195,266,307.5195" style="stroke: #A80036; stroke-width: 1.5;"/><line style="stroke: #A80036; stroke-width: 1.5;" x1="266" x2="266" y1="235.6328" y2="375.5195"/><line style="stroke: #A80036; stroke-width: 1.5;" x1="266" x2="170" y1="375.5195" y2="375.5195"/><line style="stroke: #A80036; stroke-width: 1.5;" x1="170" x2="170" y1="375.5195" y2="395.5195"/><polygon fill="#A80036" points="166,385.5195,170,395.5195,174,385.5195,170,389.5195" style="stroke: #A80036; stroke-width: 1.0;"/><line style="stroke: #A80036; stroke-width: 1.5;" x1="170" x2="170" y1="199.2305" y2="223.6328"/><polygon fill="#A80036" points="166,213.6328,170,223.6328,174,213.6328,170,217.6328" style="stroke: #A80036; stroke-width: 1.0;"/><line style="stroke: #A80036; stroke-width: 1.5;" x1="223" x2="276" y1="187.2305" y2="187.2305"/><polygon fill="#A80036" points="272,297.5195,276,307.5195,280,297.5195,276,301.5195" style="stroke: #A80036; stroke-width: 1.5;"/><line style="stroke: #A80036; stroke-width: 1.5;" x1="276" x2="276" y1="187.2305" y2="407.5195"/><line style="stroke: #A80036; stroke-width: 1.5;" x1="276" x2="182" y1="407.5195" y2="407.5195"/><polygon fill="#A80036" points="192,403.5195,182,407.5195,192,411.5195,188,407.5195" style="stroke: #A80036; stroke-width: 1.0;"/><line style="stroke: #A80036; stroke-width: 1.5;" x1="170" x2="170" y1="155.2305" y2="175.2305"/><polygon fill="#A80036" points="166,165.2305,170,175.2305,174,165.2305,170,169.2305" style="stroke: #A80036; stroke-width: 1.0;"/><line style="stroke: #A80036; stroke-width: 1.5;" x1="170" x2="170" y1="96.8594" y2="121.2617"/><polygon fill="#A80036" points="166,111.2617,170,121.2617,174,111.2617,170,115.2617" style="stroke: #A80036; stroke-width: 1.0;"/><line style="stroke: #A80036; stroke-width: 1.5;" x1="237.5" x2="298" y1="84.8594" y2="84.8594"/><polygon fill="#A80036" points="294,263.0352,298,273.0352,302,263.0352,298,267.0352" style="stroke: #A80036; stroke-width: 1.5;"/><line style="stroke: #A80036; stroke-width: 1.5;" x1="298" x2="298" y1="84.8594" y2="451.5195"/><line style="stroke: #A80036; stroke-width: 1.5;" x1="298" x2="182" y1="451.5195" y2="451.5195"/><polygon fill="#A80036" points="192,447.5195,182,451.5195,192,455.5195,188,451.5195" style="stroke: #A80036; stroke-width: 1.0;"/><line style="stroke: #A80036; stroke-width: 1.5;" x1="170" x2="170" y1="419.5195" y2="439.5195"/><polygon fill="#A80036" points="166,429.5195,170,439.5195,174,429.5195,170,433.5195" style="stroke: #A80036; stroke-width: 1.0;"/><line style="stroke: #A80036; stroke-width: 1.5;" x1="170" x2="170" y1="463.5195" y2="483.5195"/><polygon fill="#A80036" points="166,473.5195,170,483.5195,174,473.5195,170,477.5195" style="stroke: #A80036; stroke-width: 1.0;"/><line style="stroke: #A80036; stroke-width: 1.5;" x1="170" x2="170" y1="668.2617" y2="695.7773"/><polygon fill="#A80036" points="166,685.7773,170,695.7773,174,685.7773,170,689.7773" style="stroke: #A80036; stroke-width: 1.0;"/><line style="stroke: #A80036; stroke-width: 1.5;" x1="170" x2="170" y1="609.8906" y2="634.293"/><polygon fill="#A80036" points="166,624.293,170,634.293,174,624.293,170,628.293" style="stroke: #A80036; stroke-width: 1.0;"/><line style="stroke: #A80036; stroke-width: 1.5;" x1="254" x2="266" y1="597.8906" y2="597.8906"/><polygon fill="#A80036" points="262,665.7773,266,675.7773,270,665.7773,266,669.7773" style="stroke: #A80036; stroke-width: 1.5;"/><line style="stroke: #A80036; stroke-width: 1.5;" x1="266" x2="266" y1="597.8906" y2="737.7773"/><line style="stroke: #A80036; stroke-width: 1.5;" x1="266" x2="170" y1="737.7773" y2="737.7773"/><line style="stroke: #A80036; stroke-width: 1.5;" x1="170" x2="170" y1="737.7773" y2="757.7773"/><polygon fill="#A80036" points="166,747.7773,170,757.7773,174,747.7773,170,751.7773" style="stroke: #A80036; stroke-width: 1.0;"/><line style="stroke: #A80036; stroke-width: 1.5;" x1="170" x2="170" y1="561.4883" y2="585.8906"/><polygon fill="#A80036" points="166,575.8906,170,585.8906,174,575.8906,170,579.8906" style="stroke: #A80036; stroke-width: 1.0;"/><line style="stroke: #A80036; stroke-width: 1.5;" x1="223" x2="276" y1="549.4883" y2="549.4883"/><polygon fill="#A80036" points="272,659.7773,276,669.7773,280,659.7773,276,663.7773" style="stroke: #A80036; stroke-width: 1.5;"/><line style="stroke: #A80036; stroke-width: 1.5;" x1="276" x2="276" y1="549.4883" y2="769.7773"/><line style="stroke: #A80036; stroke-width: 1.5;" x1="276" x2="182" y1="769.7773" y2="769.7773"/><polygon fill="#A80036" points="192,765.7773,182,769.7773,192,773.7773,188,769.7773" style="stroke: #A80036; stroke-width: 1.0;"/><line style="stroke: #A80036; stroke-width: 1.5;" x1="170" x2="170" y1="517.4883" y2="537.4883"/><polygon fill="#A80036" points="166,527.4883,170,537.4883,174,527.4883,170,531.4883" style="stroke: #A80036; stroke-width: 1.0;"/><line style="stroke: #A80036; stroke-width: 1.5;" x1="170" x2="170" y1="781.7773" y2="802.4922"/><polygon fill="#A80036" points="166,792.4922,170,802.4922,174,792.4922,170,796.4922" style="stroke: #A80036; stroke-width: 1.0;"/><line style="stroke: #A80036; stroke-width: 1.5;" x1="170" x2="170" y1="997.9492" y2="1025.4648"/><polygon fill="#A80036" points="166,1015.4648,170,1025.4648,174,1015.4648,170,1019.4648" style="stroke: #A80036; stroke-width: 1.0;"/><line style="stroke: #A80036; stroke-width: 1.5;" x1="170" x2="170" y1="939.5781" y2="963.9805"/><polygon fill="#A80036" points="166,953.9805,170,963.9805,174,953.9805,170,957.9805" style="stroke: #A80036; stroke-width: 1.0;"/><line style="stroke: #A80036; stroke-width: 1.5;" x1="254" x2="266" y1="927.5781" y2="927.5781"/><polygon fill="#A80036" points="262,995.4648,266,1005.4648,270,995.4648,266,999.4648" style="stroke: #A80036; stroke-width: 1.5;"/><line style="stroke: #A80036; stroke-width: 1.5;" x1="266" x2="266" y1="927.5781" y2="1067.4648"/><line style="stroke: #A80036; stroke-width: 1.5;" x1="266" x2="170" y1="1067.4648" y2="1067.4648"/><line style="stroke: #A80036; stroke-width: 1.5;" x1="170" x2="170" y1="1067.4648" y2="1087.4648"/><polygon fill="#A80036" points="166,1077.4648,170,1087.4648,174,1077.4648,170,1081.4648" style="stroke: #A80036; stroke-width: 1.0;"/><line style="stroke: #A80036; stroke-width: 1.5;" x1="170" x2="170" y1="891.1758" y2="915.5781"/><polygon fill="#A80036" points="166,905.5781,170,915.5781,174,905.5781,170,909.5781" style="stroke: #A80036; stroke-width: 1.0;"/><line style="stroke: #A80036; stroke-width: 1.5;" x1="205.5" x2="276" y1="879.1758" y2="879.1758"/><polygon fill="#A80036" points="272,989.4648,276,999.4648,280,989.4648,276,993.4648" style="stroke: #A80036; stroke-width: 1.5;"/><line style="stroke: #A80036; stroke-width: 1.5;" x1="276" x2="276" y1="879.1758" y2="1099.4648"/><line style="stroke: #A80036; stroke-width: 1.5;" x1="276" x2="182" y1="1099.4648" y2="1099.4648"/><polygon fill="#A80036" points="192,1095.4648,182,1099.4648,192,1103.4648,188,1099.4648" style="stroke: #A80036; stroke-width: 1.0;"/><line style="stroke: #A80036; stroke-width: 1.5;" x1="170" x2="170" y1="836.4609" y2="867.1758"/><polygon fill="#A80036" points="166,857.1758,170,867.1758,174,857.1758,170,861.1758" style="stroke: #A80036; stroke-width: 1.0;"/><line style="stroke: #A80036; stroke-width: 1.5;" x1="170" x2="170" y1="1111.4648" y2="1131.4648"/><polygon fill="#A80036" points="166,1121.4648,170,1131.4648,174,1121.4648,170,1125.4648" style="stroke: #A80036; stroke-width: 1.0;"/><line style="stroke: #A80036; stroke-width: 1.5;" x1="170" x2="170" y1="1165.4336" y2="1185.4336"/><polygon fill="#A80036" points="166,1175.4336,170,1185.4336,174,1175.4336,170,1179.4336" style="stroke: #A80036; stroke-width: 1.0;"/><line style="stroke: #A80036; stroke-width: 1.5;" x1="170" x2="170" y1="1219.4023" y2="1239.4023"/><polygon fill="#A80036" points="166,1229.4023,170,1239.4023,174,1229.4023,170,1233.4023" style="stroke: #A80036; stroke-width: 1.0;"/><!--
@startuml
skinparam BackgroundColor lightblue
skinparam notebackgroundcolor f4e8d6


title	TFACMF lookup process\n\n

if (is //TFACMF_DIR// set?) then (yes)
	:Check <//TFACMF_DIR//> ]
	if (location exists) then (yes)
		if (compatible version found) then (yes)
			#d9ffe9:success;
			stop
		endif
	endif
endif

:Check <//CMAKE_BINARY_DIR/cmake-framework//> ]
if (location exists) then (yes)
	if (compatible version found) then (yes)
		#d9ffe9:success;
		stop
	endif
endif

:Use FetchContent to get TFACMF;
note right
	clone <//TFACMF_GIT_URL//>
	.     to <//CMAKE_BINARY_DIR/cmake-framework//>
	.     check out tag "v<//TFACMF_VERSION//>"
endnote
if (success) then (yes)
	if (compatible version found) then (yes)
		#d9ffe9:success;
		stop
	endif
endif
:report error >
#ffcccb:<U+26A0>failure;
stop

@enduml

PlantUML version 1.2017.15(Mon Jul 03 17:45:34 BST 2017)
(GPL source distribution)
Java Runtime: OpenJDK Runtime Environment
JVM: OpenJDK 64-Bit Server VM
Java Version: 11.0.9.1+1-Ubuntu-0ubuntu1.18.04
Operating System: Linux
OS Version: 4.15.0-124-generic
Default Encoding: UTF-8
Language: en
Country: GB
--></g></svg>